<?xml version="1.0" encoding="UTF-8" standalone="no"?>
<!-- Generator: Adobe Illustrator 21.0.0, SVG Export Plug-In . SVG Version: 6.00 Build 0)  -->

<svg
   xmlns:dc="http://purl.org/dc/elements/1.1/"
   xmlns:cc="http://creativecommons.org/ns#"
   xmlns:rdf="http://www.w3.org/1999/02/22-rdf-syntax-ns#"
   xmlns:svg="http://www.w3.org/2000/svg"
   xmlns="http://www.w3.org/2000/svg"
   xmlns:sodipodi="http://sodipodi.sourceforge.net/DTD/sodipodi-0.dtd"
   xmlns:inkscape="http://www.inkscape.org/namespaces/inkscape"
   version="1.1"
   id="Layer_1"
   x="0px"
   y="0px"
   viewBox="0 0 300.00598 165.31868"
   xml:space="preserve"
   sodipodi:docname="logo_bucuresti_2050_text_cu-subtitlu_monocrom.svg"
   width="300.00598"
   height="165.31868"
   inkscape:version="0.92.4 5da689c313, 2019-01-14"><metadata
   id="metadata121"><rdf:RDF><cc:Work
       rdf:about=""><dc:format>image/svg+xml</dc:format><dc:type
         rdf:resource="http://purl.org/dc/dcmitype/StillImage" /><dc:title></dc:title></cc:Work></rdf:RDF></metadata><defs
   id="defs119" /><sodipodi:namedview
   pagecolor="#ffffff"
   bordercolor="#666666"
   borderopacity="1"
   objecttolerance="10"
   gridtolerance="10"
   guidetolerance="10"
   inkscape:pageopacity="0"
   inkscape:pageshadow="2"
   inkscape:window-width="1681"
   inkscape:window-height="965"
   id="namedview117"
   showgrid="false"
   fit-margin-top="0"
   fit-margin-left="0"
   fit-margin-right="0"
   fit-margin-bottom="0"
   inkscape:zoom="1.0164474"
   inkscape:cx="150.2"
   inkscape:cy="83.150002"
   inkscape:window-x="2019"
   inkscape:window-y="6"
   inkscape:window-maximized="0"
   inkscape:current-layer="Layer_1" />
<style
   type="text/css"
   id="style2">
	.st0{fill:#1C2F57;}
	.st1{fill:#F05325;}
	.st2{fill:#113154;}
	.st3{fill:#0DAB50;}
	.st4{fill:#E9202F;}
	.st5{fill:#08AA97;}
	.st6{fill:#F78D2A;}
	.st7{fill:#882D8F;}
	.st8{fill:#2BACE2;}
	.st9{fill:#E26B29;}
	.st10{fill:#182E5A;}
	.st11{fill:#FDB716;}
	.st12{fill:#046269;}
</style>
<g
   id="g22"
   transform="translate(-1.8,-2.6813176)">
	<path
   class="st0"
   d="m 33.1,63.8 c 0,2.4 -0.4,4.5 -1.3,6.1 -0.9,1.6 -2.1,2.9 -3.7,3.8 -1.6,0.9 -3.4,1.6 -5.6,1.9 -2.2,0.3 -4.5,0.6 -7,0.6 -2,0 -3.8,-0.1 -5.4,-0.2 C 8.5,75.9 6.8,75.7 4.9,75.4 V 35.6 c 1.4,-0.2 2.9,-0.4 4.6,-0.6 1.7,-0.2 3.6,-0.2 5.8,-0.2 2.1,0 4.1,0.2 5.9,0.5 1.8,0.4 3.4,0.9 4.8,1.8 1.4,0.8 2.5,1.9 3.2,3.3 0.8,1.4 1.2,3.1 1.2,5.2 0,1.7 -0.4,3.3 -1.2,4.7 -0.8,1.4 -1.8,2.5 -2.9,3.3 0.9,0.3 1.7,0.8 2.5,1.3 0.8,0.5 1.5,1.2 2.1,2 0.6,0.8 1.1,1.8 1.5,2.9 0.4,1.1 0.7,2.6 0.7,4 z m -18.4,-13 h 1.6 c 1.6,0 2.8,-0.3 3.7,-1 0.9,-0.6 1.3,-1.8 1.3,-3.4 0,-0.8 -0.2,-1.4 -0.5,-1.9 -0.3,-0.5 -0.7,-0.9 -1.2,-1.2 -0.5,-0.3 -1,-0.5 -1.6,-0.6 -0.6,-0.1 -1.2,-0.2 -1.7,-0.2 -0.2,0 -0.5,0 -0.8,0 -0.3,0 -0.6,0 -0.8,0.1 z m 0,7.9 V 68 c 0.3,0 0.6,0.1 1,0.1 0.4,0 0.9,0 1.5,0 0.7,0 1.4,-0.1 2.1,-0.2 0.7,-0.1 1.4,-0.4 2,-0.7 0.6,-0.4 1.1,-0.8 1.4,-1.4 0.4,-0.6 0.5,-1.4 0.5,-2.3 0,-1.8 -0.6,-3 -1.7,-3.7 -1.2,-0.7 -2.7,-1 -4.5,-1 h -2.3 z"
   id="path4"
   inkscape:connector-curvature="0"
   style="fill:#1c2f57" />
	<path
   class="st0"
   d="m 53.3,76.1 c -3,0 -5.5,-0.4 -7.5,-1.2 -2,-0.8 -3.5,-2 -4.7,-3.5 C 40,69.9 39.1,68 38.7,65.8 38.2,63.6 38,61.2 38,58.4 V 35.6 c 1.1,-0.1 2,-0.3 2.8,-0.3 0.8,-0.1 1.5,-0.1 2.2,-0.1 0.6,0 1.3,0 2.1,0.1 0.8,0.1 1.7,0.2 2.7,0.3 v 21.6 c 0,1.9 0.1,3.4 0.2,4.7 0.1,1.3 0.4,2.4 0.8,3.2 0.4,0.8 0.9,1.4 1.6,1.7 0.7,0.4 1.6,0.5 2.8,0.5 1.1,0 2.1,-0.2 2.8,-0.5 0.7,-0.4 1.3,-0.9 1.7,-1.7 0.4,-0.8 0.6,-1.9 0.8,-3.2 0.1,-1.3 0.2,-2.9 0.2,-4.7 V 35.6 c 1.1,-0.1 2,-0.3 2.8,-0.3 0.8,-0.1 1.5,-0.1 2.1,-0.1 0.7,0 1.4,0 2.2,0.1 0.8,0.1 1.7,0.2 2.8,0.3 v 22.7 c 0,2.7 -0.2,5.2 -0.7,7.4 -0.5,2.2 -1.3,4 -2.4,5.6 -1.1,1.5 -2.7,2.7 -4.7,3.5 -2.1,0.9 -4.5,1.3 -7.5,1.3 z"
   id="path6"
   inkscape:connector-curvature="0"
   style="fill:#1c2f57" />
	<path
   class="st0"
   d="m 84.3,55.6 c 0,7.9 3.3,11.8 9.9,11.8 1.2,0 2.3,-0.1 3.4,-0.3 1.1,-0.2 2.3,-0.6 3.9,-1.1 1.2,2.7 2,5.4 2.4,8.2 -1.1,0.4 -2.1,0.7 -3,1 -0.9,0.3 -1.8,0.5 -2.7,0.6 -0.9,0.1 -1.7,0.2 -2.5,0.3 -0.8,0.1 -1.7,0.1 -2.6,0.1 -3.1,0 -5.9,-0.5 -8.3,-1.5 -2.4,-1 -4.4,-2.4 -6,-4.2 C 77.2,68.7 76,66.5 75.2,64 74.4,61.5 74,58.7 74,55.8 c 0,-3 0.4,-5.7 1.3,-8.2 0.9,-2.5 2.1,-4.7 3.7,-6.6 1.6,-1.9 3.6,-3.3 6,-4.3 2.4,-1 5.1,-1.6 8.1,-1.6 1.8,0 3.5,0.1 5.1,0.4 1.6,0.3 3.4,0.8 5.3,1.6 -0.1,1.5 -0.4,3 -0.8,4.4 -0.5,1.4 -1,2.7 -1.5,3.7 -0.7,-0.3 -1.4,-0.5 -2,-0.7 C 98.6,44.3 98,44.2 97.5,44.1 96.9,44 96.4,43.9 95.8,43.8 95.2,43.7 94.7,43.7 94,43.7 c -3,0 -5.3,1 -7,3 -1.9,1.9 -2.7,4.9 -2.7,8.9 z"
   id="path8"
   inkscape:connector-curvature="0"
   style="fill:#1c2f57" />
	<path
   class="st0"
   d="m 123.9,76.1 c -3,0 -5.5,-0.4 -7.5,-1.2 -2,-0.8 -3.5,-2 -4.7,-3.5 -1.1,-1.5 -2,-3.4 -2.4,-5.6 -0.5,-2.2 -0.7,-4.6 -0.7,-7.4 V 35.6 c 1.1,-0.1 2,-0.3 2.8,-0.3 0.8,-0.1 1.5,-0.1 2.2,-0.1 0.6,0 1.3,0 2.1,0.1 0.8,0.1 1.7,0.2 2.7,0.3 v 21.6 c 0,1.9 0.1,3.4 0.2,4.7 0.1,1.3 0.4,2.4 0.8,3.2 0.4,0.8 0.9,1.4 1.6,1.7 0.7,0.4 1.6,0.5 2.8,0.5 1.1,0 2.1,-0.2 2.8,-0.5 0.7,-0.4 1.3,-0.9 1.7,-1.7 0.4,-0.8 0.6,-1.9 0.8,-3.2 0.2,-1.3 0.2,-2.9 0.2,-4.7 V 35.6 c 1.1,-0.1 2,-0.3 2.8,-0.3 0.8,-0.1 1.5,-0.1 2.1,-0.1 0.7,0 1.4,0 2.2,0.1 0.8,0.1 1.7,0.2 2.8,0.3 v 22.7 c 0,2.7 -0.2,5.2 -0.7,7.4 -0.5,2.2 -1.3,4 -2.4,5.6 -1.1,1.5 -2.7,2.7 -4.7,3.5 -2.1,0.9 -4.5,1.3 -7.5,1.3 z"
   id="path10"
   inkscape:connector-curvature="0"
   style="fill:#1c2f57" />
	<path
   class="st0"
   d="m 145.6,35.6 c 1.8,-0.2 3.5,-0.4 5,-0.5 1.5,-0.2 3.2,-0.3 4.9,-0.3 2,0 4.1,0.2 6.1,0.6 2,0.4 3.9,1.1 5.4,2 1.6,1 2.9,2.3 3.9,3.9 1,1.7 1.5,3.8 1.5,6.3 0,1.4 -0.2,2.6 -0.5,3.7 -0.3,1.1 -0.7,2.1 -1.2,2.9 -0.5,0.9 -1.1,1.6 -1.7,2.2 -0.6,0.6 -1.2,1.2 -1.8,1.6 l 8.7,17.1 c -0.9,0.1 -1.9,0.3 -2.9,0.3 -1.1,0.1 -2,0.1 -2.9,0.1 -0.7,0 -1.6,0 -2.6,-0.1 -1,-0.1 -1.8,-0.2 -2.6,-0.3 l -7.9,-18.2 0.5,-0.3 c 0.4,-0.2 0.9,-0.6 1.5,-1.1 0.5,-0.5 1,-1.1 1.5,-1.9 0.5,-0.7 0.9,-1.5 1.2,-2.4 0.3,-0.9 0.5,-1.8 0.5,-2.8 0,-1.9 -0.5,-3.2 -1.6,-4.1 -1,-0.9 -2.3,-1.3 -3.8,-1.3 -0.4,0 -0.7,0 -0.9,0.1 -0.3,0 -0.4,0.1 -0.5,0.1 V 75 c -2,0.3 -3.6,0.5 -4.8,0.5 -1.4,0 -3,-0.2 -4.9,-0.5 V 35.6 Z"
   id="path12"
   inkscape:connector-curvature="0"
   style="fill:#1c2f57" />
	<path
   class="st0"
   d="m 200.8,54.6 c 0,1.3 -0.2,2.7 -0.5,4.3 h -10.7 v 7.9 h 13.9 c 0.3,1.6 0.5,3 0.5,4.2 0,1.4 -0.2,2.8 -0.5,4.4 H 179.7 V 35.5 h 23.4 c 0.1,0.8 0.3,1.6 0.3,2.3 0.1,0.7 0.1,1.4 0.1,2 0,1.2 -0.1,2.7 -0.4,4.4 h -13.6 v 6.1 h 10.7 c 0.5,1.6 0.6,3.1 0.6,4.3 z"
   id="path14"
   inkscape:connector-curvature="0"
   style="fill:#1c2f57" />
	<path
   class="st0"
   d="m 224.6,51.1 c 1.6,0.6 3,1.3 4.2,1.9 1.2,0.6 2.3,1.4 3.2,2.3 0.9,0.9 1.6,2 2.1,3.3 0.5,1.3 0.7,2.8 0.7,4.6 0,2 -0.3,3.7 -1,5.3 -0.7,1.6 -1.7,2.9 -3,4.1 -1.3,1.1 -3,2 -4.9,2.6 -1.9,0.6 -4.2,0.9 -6.7,0.9 -2.3,0 -4.3,-0.2 -6.1,-0.6 -1.8,-0.4 -3.7,-0.9 -5.7,-1.7 0.1,-1.3 0.4,-2.7 0.8,-4.1 0.4,-1.5 0.8,-3 1.3,-4.5 3.4,1.5 6.4,2.2 8.9,2.2 1.9,0 3.4,-0.3 4.4,-0.9 1.1,-0.6 1.6,-1.6 1.6,-3 0,-0.6 -0.1,-1.1 -0.3,-1.5 -0.2,-0.4 -0.5,-0.8 -0.9,-1.1 -0.4,-0.3 -0.8,-0.5 -1.3,-0.7 -0.5,-0.2 -0.9,-0.4 -1.4,-0.6 l -3.1,-1.2 c -1.3,-0.5 -2.5,-1.1 -3.6,-1.7 -1.1,-0.7 -2,-1.5 -2.8,-2.4 -0.8,-0.9 -1.4,-2 -1.8,-3.1 -0.4,-1.2 -0.6,-2.6 -0.6,-4.2 0,-2 0.3,-3.7 1,-5.2 0.7,-1.5 1.6,-2.8 2.8,-3.9 1.2,-1.1 2.7,-1.9 4.4,-2.4 1.7,-0.5 3.6,-0.8 5.7,-0.8 1.9,0 3.7,0.2 5.5,0.6 1.8,0.4 3.6,0.9 5.6,1.6 -0.1,1.2 -0.4,2.5 -0.8,3.9 -0.4,1.4 -0.9,2.8 -1.5,4 -1,-0.4 -2.1,-0.8 -3.4,-1.3 -1.3,-0.4 -2.9,-0.7 -4.8,-0.7 -0.6,0 -1.2,0.1 -1.7,0.2 -0.5,0.1 -1,0.3 -1.4,0.5 -0.4,0.2 -0.8,0.6 -1,1 -0.3,0.4 -0.4,1 -0.4,1.6 0,1.1 0.4,1.9 1.1,2.4 0.7,0.5 1.5,1 2.5,1.3 z m -7.1,28.1 c 1.3,-0.3 2.6,-0.4 4.1,-0.4 0.7,0 1.4,0 2.1,0.1 0.7,0.1 1.4,0.2 2.1,0.3 l -3.9,9.3 c -1.1,0.3 -2.2,0.4 -3.3,0.4 -1.1,0 -2.3,-0.1 -3.6,-0.4 z"
   id="path16"
   inkscape:connector-curvature="0"
   style="fill:#1c2f57" />
	<path
   class="st0"
   d="M 246.3,44.2 H 237 c -0.3,-1.6 -0.5,-3.1 -0.5,-4.4 0,-1.2 0.2,-2.6 0.5,-4.3 h 28.4 c 0.1,0.8 0.3,1.6 0.3,2.3 0.1,0.7 0.1,1.4 0.1,2 0,1.2 -0.1,2.7 -0.4,4.4 h -9.3 v 31.1 c -2,0.3 -3.6,0.5 -4.9,0.5 -1.4,0 -3,-0.2 -4.9,-0.5 z"
   id="path18"
   inkscape:connector-curvature="0"
   style="fill:#1c2f57" />
	<path
   class="st0"
   d="m 274.9,75.8 c -1.4,0 -3,-0.2 -4.9,-0.5 V 35.6 c 1,-0.1 1.9,-0.3 2.7,-0.3 0.8,-0.1 1.5,-0.1 2.2,-0.1 0.7,0 1.4,0 2.2,0.1 0.8,0.1 1.7,0.2 2.7,0.3 v 39.7 c -1.9,0.3 -3.6,0.5 -4.9,0.5 z"
   id="path20"
   inkscape:connector-curvature="0"
   style="fill:#1c2f57" />
</g>
<g
   id="g26"
   transform="translate(-1.8,-2.6813176)">
	<path
   class="st0"
   d="m 75.5,130 8.9,-11.6 c 1.4,-1.8 2.6,-3.4 3.7,-4.8 1.1,-1.4 2,-2.6 2.8,-3.8 0.8,-1.2 1.3,-2.2 1.7,-3.2 0.4,-1 0.6,-2 0.6,-3 0,-1.7 -0.6,-3 -1.8,-4 -1.2,-0.9 -2.9,-1.4 -5,-1.4 -0.9,0 -1.7,0 -2.3,0.1 -0.7,0.1 -1.3,0.2 -1.9,0.4 -0.6,0.2 -1.2,0.4 -1.8,0.6 -0.6,0.2 -1.2,0.5 -1.9,0.8 -0.5,-1.1 -1,-2.3 -1.4,-3.5 -0.4,-1.2 -0.6,-2.4 -0.7,-3.6 1,-0.4 1.9,-0.7 2.7,-1 0.8,-0.3 1.7,-0.5 2.5,-0.7 0.8,-0.2 1.7,-0.3 2.6,-0.4 0.9,-0.1 2,-0.2 3.1,-0.2 2.2,0 4.1,0.2 6,0.7 1.8,0.5 3.4,1.2 4.7,2.2 1.3,1 2.3,2.2 3.1,3.7 0.7,1.5 1.1,3.2 1.1,5.2 0,1.5 -0.2,2.9 -0.6,4.2 -0.4,1.3 -1,2.7 -1.7,4 -0.7,1.3 -1.6,2.7 -2.6,4.1 -1,1.4 -2.1,2.9 -3.3,4.5 l -3.2,4.3 h 13 c 0.2,1.2 0.4,2.4 0.4,3.6 0,1.3 -0.1,2.6 -0.4,3.8 H 75.9 Z"
   id="path24"
   inkscape:connector-curvature="0"
   style="fill:#1c2f57" />
</g>
<g
   id="g30"
   transform="translate(-1.8,-2.6813176)">
	<path
   class="st0"
   d="m 123.6,131.6 c -2.7,0 -5.1,-0.5 -7.1,-1.5 -2,-1 -3.6,-2.4 -4.9,-4.3 -1.3,-1.8 -2.2,-4 -2.9,-6.5 -0.6,-2.5 -0.9,-5.2 -0.9,-8.2 0,-3 0.3,-5.7 1,-8.2 0.6,-2.5 1.6,-4.7 2.9,-6.5 1.3,-1.8 3,-3.3 5,-4.3 2,-1 4.4,-1.6 7.2,-1.6 2.7,0 5.1,0.5 7.1,1.6 2,1 3.6,2.5 4.9,4.3 1.3,1.8 2.3,4 2.9,6.5 0.6,2.5 0.9,5.3 0.9,8.2 0,3 -0.3,5.7 -1,8.2 -0.6,2.5 -1.6,4.7 -2.9,6.5 -1.3,1.8 -3,3.2 -5,4.3 -2.1,1 -4.4,1.5 -7.2,1.5 z m 0.2,-7.3 c 2.1,0 3.7,-1.1 4.8,-3.2 1.2,-2.1 1.7,-5.4 1.7,-10 0,-4.5 -0.6,-7.8 -1.7,-10 -1.2,-2.1 -2.8,-3.2 -4.8,-3.2 -2.1,0 -3.8,1.1 -5,3.2 -1.2,2.1 -1.8,5.4 -1.8,10 0,4.5 0.6,7.8 1.8,10 1.3,2.1 2.9,3.2 5,3.2 z"
   id="path28"
   inkscape:connector-curvature="0"
   style="fill:#1c2f57" />
</g>
<g
   id="g34"
   transform="translate(-1.8,-2.6813176)">
	<path
   class="st0"
   d="m 147.4,91.2 h 21.8 c 0.2,1.2 0.4,2.4 0.4,3.7 0,1.3 -0.1,2.6 -0.4,3.8 h -14 l -0.4,8.7 c 0.7,-0.2 1.4,-0.3 1.9,-0.3 0.6,-0.1 1.2,-0.1 1.8,-0.1 2,0 3.8,0.3 5.4,0.8 1.6,0.5 3,1.4 4.2,2.4 1.2,1.1 2.1,2.4 2.7,4 0.6,1.6 1,3.4 1,5.5 0,2.5 -0.4,4.7 -1.3,6.6 -0.9,1.9 -2.1,3.5 -3.7,4.8 -1.6,1.3 -3.6,2.3 -5.8,2.9 -2.3,0.6 -4.9,1 -7.7,1 -0.5,0 -1.2,0 -2,-0.1 -0.8,-0.1 -1.6,-0.2 -2.6,-0.3 -0.9,-0.1 -1.9,-0.3 -2.9,-0.6 -1,-0.2 -2,-0.5 -2.9,-0.9 0.1,-1.3 0.4,-2.5 0.8,-3.7 0.4,-1.2 0.9,-2.4 1.3,-3.6 1.4,0.5 2.8,0.9 4,1.2 1.3,0.3 2.6,0.4 4,0.4 1.8,0 3.3,-0.2 4.6,-0.6 1.2,-0.4 2.2,-0.9 3,-1.6 0.8,-0.7 1.3,-1.4 1.6,-2.3 0.3,-0.9 0.5,-1.8 0.5,-2.7 0,-2.1 -0.7,-3.7 -2,-4.8 -1.3,-1.1 -3.5,-1.7 -6.5,-1.7 -1.2,0 -2.3,0.1 -3.4,0.3 -1.1,0.2 -2.2,0.6 -3.4,1.2 l -0.9,-0.7 z"
   id="path32"
   inkscape:connector-curvature="0"
   style="fill:#1c2f57" />
</g>
<g
   id="g38"
   transform="translate(-1.8,-2.6813176)">
	<path
   class="st0"
   d="m 194.6,131.6 c -2.7,0 -5.1,-0.5 -7.1,-1.5 -2,-1 -3.6,-2.4 -4.9,-4.3 -1.3,-1.8 -2.2,-4 -2.9,-6.5 -0.6,-2.5 -0.9,-5.2 -0.9,-8.2 0,-3 0.3,-5.7 1,-8.2 0.6,-2.5 1.6,-4.7 2.9,-6.5 1.3,-1.8 3,-3.3 5,-4.3 2,-1 4.4,-1.6 7.2,-1.6 2.7,0 5.1,0.5 7.1,1.6 2,1 3.6,2.5 4.9,4.3 1.3,1.8 2.3,4 2.9,6.5 0.6,2.5 0.9,5.3 0.9,8.2 0,3 -0.3,5.7 -1,8.2 -0.6,2.5 -1.6,4.7 -2.9,6.5 -1.3,1.8 -3,3.2 -5,4.3 -2.1,1 -4.5,1.5 -7.2,1.5 z m 0.1,-7.3 c 2.1,0 3.7,-1.1 4.8,-3.2 1.2,-2.1 1.7,-5.4 1.7,-10 0,-4.5 -0.6,-7.8 -1.7,-10 -1.1,-2.2 -2.8,-3.2 -4.8,-3.2 -2.1,0 -3.8,1.1 -5,3.2 -1.2,2.1 -1.8,5.4 -1.8,10 0,4.5 0.6,7.8 1.8,10 1.3,2.2 3,3.2 5,3.2 z"
   id="path36"
   inkscape:connector-curvature="0"
   style="fill:#1c2f57" />
</g>
<g
   id="g112"
   transform="translate(-1.8,-2.6813176)">
	<path
   class="st0"
   d="m 2,162.5 c 0.3,0.1 0.7,0.2 1.1,0.3 0.4,0.1 0.8,0.1 1.4,0.1 0.8,0 1.5,-0.2 1.9,-0.5 C 6.8,162.1 7,161.6 7,161 7,160.7 7,160.5 6.9,160.3 6.8,160.1 6.7,159.9 6.5,159.8 6.3,159.7 6.1,159.5 5.8,159.4 5.5,159.3 5.2,159.1 4.9,159 L 4,158.6 C 3.7,158.5 3.4,158.3 3.2,158.2 3,158.1 2.7,157.9 2.6,157.7 2.4,157.5 2.3,157.2 2.2,157 2.1,156.7 2,156.4 2,156 c 0,-0.9 0.3,-1.7 1,-2.2 0.6,-0.5 1.5,-0.8 2.7,-0.8 0.5,0 1,0 1.4,0.1 0.4,0.1 0.8,0.2 1.2,0.3 -0.1,0.4 -0.2,0.9 -0.3,1.3 -0.3,-0.1 -0.6,-0.2 -1,-0.3 -0.4,-0.1 -0.8,-0.1 -1.2,-0.1 -0.6,0 -1.1,0.1 -1.5,0.4 -0.3,0.3 -0.5,0.7 -0.5,1.2 0,0.2 0,0.4 0.1,0.6 0.1,0.2 0.2,0.3 0.3,0.4 0.1,0.1 0.3,0.2 0.5,0.3 0.2,0.1 0.4,0.2 0.6,0.3 l 0.9,0.3 c 0.4,0.2 0.8,0.3 1.1,0.5 0.3,0.2 0.6,0.4 0.8,0.6 0.2,0.2 0.4,0.5 0.5,0.9 0.1,0.3 0.2,0.7 0.2,1.2 0,1.1 -0.4,1.9 -1.1,2.5 -0.7,0.6 -1.8,0.9 -3.1,0.9 -0.3,0 -0.6,0 -0.9,0 -0.3,0 -0.5,-0.1 -0.7,-0.1 -0.2,0 -0.4,-0.1 -0.6,-0.2 C 2.2,164 2,164 1.8,163.9 c 0,-0.2 0.1,-0.5 0.1,-0.7 0,-0.3 0,-0.5 0.1,-0.7 z"
   id="path40"
   inkscape:connector-curvature="0"
   style="fill:#1c2f57" />
	<path
   class="st0"
   d="M 10.9,157.4 H 9.7 l -0.1,-0.2 2.7,-3 h 0.1 v 2 h 2 c 0,0.2 0.1,0.4 0.1,0.6 0,0.1 0,0.2 0,0.3 0,0.1 0,0.2 0,0.3 h -2 v 3.6 c 0,0.4 0,0.8 0.1,1 0,0.3 0.1,0.5 0.2,0.6 0.1,0.1 0.2,0.2 0.4,0.3 0.1,0 0.3,0.1 0.6,0.1 0.2,0 0.3,0 0.5,0 0.2,0 0.3,-0.1 0.4,-0.1 0.1,0.2 0.1,0.4 0.1,0.6 0,0.2 0,0.4 0,0.6 -0.2,0 -0.4,0.1 -0.6,0.1 -0.2,0 -0.5,0 -0.7,0 -0.7,0 -1.3,-0.2 -1.7,-0.5 -0.4,-0.4 -0.6,-1 -0.6,-1.8 v -4.5 z"
   id="path42"
   inkscape:connector-curvature="0"
   style="fill:#1c2f57" />
	<path
   class="st0"
   d="m 16.1,156.2 c 0.1,0 0.2,0 0.3,0 0.1,0 0.2,0 0.3,0 0.1,0 0.2,0 0.3,0 0.1,0 0.2,0 0.3,0 0,0.2 0.1,0.4 0.1,0.6 0,0.3 0,0.5 0,0.6 0.2,-0.4 0.5,-0.7 0.9,-0.9 0.4,-0.2 0.8,-0.4 1.4,-0.4 0.1,0 0.2,0 0.3,0 0.1,0 0.2,0 0.2,0 0,0.1 0,0.2 0,0.3 0,0.1 0,0.2 0,0.3 0,0.1 0,0.3 0,0.4 0,0.1 0,0.3 -0.1,0.4 -0.1,0 -0.2,0 -0.3,0 -0.1,0 -0.2,0 -0.2,0 -0.3,0 -0.5,0 -0.8,0.1 -0.3,0.1 -0.5,0.2 -0.7,0.4 -0.2,0.2 -0.4,0.5 -0.5,0.8 -0.1,0.3 -0.2,0.8 -0.2,1.3 v 3.9 c -0.1,0 -0.2,0 -0.4,0 -0.1,0 -0.3,0 -0.4,0 -0.1,0 -0.2,0 -0.4,0 -0.1,0 -0.3,0 -0.4,0 v -7.8 z"
   id="path44"
   inkscape:connector-curvature="0"
   style="fill:#1c2f57" />
	<path
   class="st0"
   d="m 25.9,158.9 c 0,-0.6 -0.2,-1 -0.5,-1.3 -0.3,-0.3 -0.8,-0.4 -1.3,-0.4 -0.4,0 -0.7,0 -1,0.1 -0.3,0.1 -0.6,0.1 -0.9,0.2 -0.2,-0.3 -0.3,-0.7 -0.3,-1.2 0.3,-0.1 0.7,-0.2 1.2,-0.3 0.4,-0.1 0.8,-0.1 1.2,-0.1 1,0 1.8,0.2 2.3,0.7 0.5,0.5 0.8,1.2 0.8,2.2 v 4.9 c -0.4,0.1 -0.8,0.2 -1.3,0.3 -0.5,0.1 -1,0.1 -1.6,0.1 -0.5,0 -1,0 -1.4,-0.1 -0.4,-0.1 -0.8,-0.2 -1,-0.4 -0.3,-0.2 -0.5,-0.5 -0.7,-0.8 -0.2,-0.3 -0.2,-0.7 -0.2,-1.2 0,-0.4 0.1,-0.8 0.3,-1.2 0.2,-0.3 0.4,-0.6 0.7,-0.8 0.3,-0.2 0.7,-0.4 1.1,-0.5 0.4,-0.1 0.8,-0.2 1.3,-0.2 0.3,0 0.6,0 0.8,0 0.2,0 0.4,0 0.5,0.1 z m 0,1.5 c -0.2,0 -0.3,0 -0.6,-0.1 -0.2,0 -0.4,0 -0.6,0 -0.6,0 -1.1,0.1 -1.5,0.4 -0.3,0.2 -0.5,0.6 -0.5,1.1 0,0.3 0.1,0.6 0.2,0.7 0.1,0.2 0.3,0.3 0.4,0.4 0.2,0.1 0.4,0.1 0.6,0.2 0.2,0 0.4,0 0.6,0 0.2,0 0.5,0 0.7,0 0.3,0 0.5,-0.1 0.7,-0.1 z"
   id="path46"
   inkscape:connector-curvature="0"
   style="fill:#1c2f57" />
	<path
   class="st0"
   d="m 29.9,157.4 h -1.2 l -0.1,-0.2 2.7,-3 h 0.1 v 2 h 2 c 0,0.2 0.1,0.4 0.1,0.6 0,0.1 0,0.2 0,0.3 0,0.1 0,0.2 0,0.3 h -2 v 3.6 c 0,0.4 0,0.8 0.1,1 0,0.3 0.1,0.5 0.2,0.6 0.1,0.1 0.2,0.2 0.4,0.3 0.1,0 0.3,0.1 0.6,0.1 0.2,0 0.3,0 0.5,0 0.2,0 0.3,-0.1 0.4,-0.1 0.1,0.2 0.1,0.4 0.1,0.6 0,0.2 0,0.4 0,0.6 -0.2,0 -0.4,0.1 -0.6,0.1 -0.2,0 -0.5,0 -0.7,0 -0.7,0 -1.3,-0.2 -1.7,-0.5 -0.4,-0.4 -0.6,-1 -0.6,-1.8 v -4.5 z"
   id="path48"
   inkscape:connector-curvature="0"
   style="fill:#1c2f57" />
	<path
   class="st0"
   d="m 36.3,160.6 c 0,0.9 0.2,1.5 0.7,1.9 0.4,0.4 1.1,0.6 1.9,0.6 0.7,0 1.4,-0.1 2.1,-0.4 0.1,0.2 0.1,0.3 0.2,0.6 0.1,0.2 0.1,0.4 0.1,0.7 -0.3,0.1 -0.7,0.3 -1.1,0.3 -0.4,0.1 -0.9,0.1 -1.3,0.1 -0.7,0 -1.3,-0.1 -1.9,-0.3 -0.5,-0.2 -0.9,-0.5 -1.3,-0.8 -0.3,-0.4 -0.6,-0.8 -0.7,-1.3 -0.2,-0.5 -0.2,-1 -0.2,-1.6 0,-0.6 0.1,-1.1 0.2,-1.6 0.1,-0.5 0.4,-1 0.7,-1.3 0.3,-0.4 0.7,-0.7 1.2,-0.9 0.5,-0.2 1,-0.3 1.7,-0.3 0.5,0 1,0.1 1.4,0.3 0.4,0.2 0.8,0.4 1,0.8 0.3,0.3 0.5,0.7 0.6,1.2 0.1,0.4 0.2,0.9 0.2,1.5 0,0.1 0,0.3 0,0.5 0,0.2 0,0.3 0,0.4 h -5.5 z m 3.9,-1.2 c 0,-0.3 0,-0.6 -0.1,-0.8 -0.1,-0.3 -0.2,-0.5 -0.3,-0.7 -0.1,-0.2 -0.3,-0.4 -0.6,-0.5 -0.2,-0.1 -0.5,-0.2 -0.8,-0.2 -0.6,0 -1.1,0.2 -1.4,0.6 -0.3,0.4 -0.5,0.9 -0.6,1.6 z"
   id="path50"
   inkscape:connector-curvature="0"
   style="fill:#1c2f57" />
	<path
   class="st0"
   d="m 47.9,163.1 c 0.9,0 1.6,0.2 2,0.6 0.4,0.4 0.6,0.9 0.6,1.5 0,0.4 -0.1,0.8 -0.3,1.1 -0.2,0.3 -0.5,0.6 -0.9,0.9 -0.4,0.2 -0.8,0.4 -1.3,0.6 -0.5,0.1 -1.1,0.2 -1.7,0.2 -1.1,0 -1.9,-0.2 -2.4,-0.5 -0.6,-0.3 -0.8,-0.8 -0.8,-1.6 0,-0.4 0.1,-0.8 0.3,-1.1 0.2,-0.3 0.5,-0.6 0.9,-0.8 -0.2,-0.1 -0.4,-0.3 -0.5,-0.5 -0.1,-0.2 -0.2,-0.5 -0.2,-0.7 0,-0.4 0.1,-0.7 0.3,-1 0.2,-0.3 0.4,-0.5 0.7,-0.7 -0.3,-0.2 -0.6,-0.5 -0.8,-0.9 -0.2,-0.4 -0.3,-0.8 -0.3,-1.3 0,-0.4 0.1,-0.8 0.2,-1.1 0.1,-0.3 0.4,-0.6 0.6,-0.9 0.3,-0.3 0.6,-0.5 1,-0.6 0.4,-0.1 0.9,-0.2 1.4,-0.2 0.5,0 0.9,0.1 1.3,0.2 0.4,0.1 0.7,0.3 1,0.5 0.2,-0.2 0.5,-0.3 0.8,-0.4 0.3,-0.1 0.7,-0.2 1.2,-0.2 0,0.2 0.1,0.4 0.1,0.6 0,0.1 0,0.2 0,0.4 0,0.1 0,0.2 0,0.4 h -1.4 c 0.1,0.2 0.2,0.4 0.3,0.6 0.1,0.2 0.1,0.4 0.1,0.7 0,0.4 -0.1,0.8 -0.2,1.1 -0.2,0.3 -0.4,0.6 -0.7,0.9 -0.3,0.2 -0.6,0.4 -1,0.6 -0.4,0.1 -0.8,0.2 -1.3,0.2 -0.4,0 -0.8,0 -1.1,-0.1 -0.1,0.1 -0.3,0.2 -0.4,0.4 -0.1,0.2 -0.2,0.4 -0.2,0.5 0,0.2 0.1,0.3 0.2,0.5 0.1,0.1 0.4,0.2 0.9,0.2 z m -2.1,1.2 c -0.5,0 -0.8,0.1 -1,0.4 -0.2,0.3 -0.3,0.6 -0.3,0.9 0,0.2 0,0.4 0.1,0.6 0.1,0.1 0.2,0.3 0.4,0.3 0.2,0.1 0.4,0.1 0.6,0.2 0.2,0 0.5,0.1 0.8,0.1 0.8,0 1.5,-0.1 1.9,-0.4 0.5,-0.3 0.7,-0.6 0.7,-1 0,-0.3 -0.1,-0.5 -0.3,-0.7 -0.2,-0.2 -0.6,-0.3 -1.1,-0.3 z m 0.7,-3.8 c 0.6,0 1,-0.2 1.2,-0.5 0.3,-0.3 0.4,-0.7 0.4,-1.2 0,-0.5 -0.1,-0.9 -0.4,-1.2 -0.3,-0.3 -0.7,-0.5 -1.2,-0.5 -0.5,0 -1,0.2 -1.2,0.5 -0.3,0.3 -0.4,0.7 -0.4,1.2 0,0.5 0.1,0.9 0.4,1.2 0.3,0.3 0.7,0.5 1.2,0.5 z"
   id="path52"
   inkscape:connector-curvature="0"
   style="fill:#1c2f57" />
	<path
   class="st0"
   d="m 52.7,157.4 h -1 c 0,-0.1 0,-0.2 0,-0.3 0,-0.1 0,-0.2 0,-0.3 0,-0.1 0,-0.2 0,-0.3 0,-0.1 0,-0.2 0,-0.3 h 2.5 v 7.9 c -0.1,0 -0.2,0 -0.4,0 -0.1,0 -0.3,0 -0.4,0 -0.1,0 -0.2,0 -0.4,0 -0.1,0 -0.3,0 -0.4,0 v -6.7 z m -0.4,-2.9 c 0,-0.1 0,-0.3 0,-0.4 0,-0.1 0,-0.3 0,-0.4 0,-0.1 0,-0.2 0,-0.4 0,-0.1 0,-0.3 0,-0.4 0.1,0 0.3,0 0.4,0 0.1,0 0.3,0 0.4,0 0.1,0 0.2,0 0.4,0 0.2,0 0.3,0 0.4,0 0,0.1 0,0.2 0,0.4 0,0.1 0,0.3 0,0.4 0,0.1 0,0.2 0,0.4 0,0.1 0,0.3 0,0.4 -0.1,0 -0.3,0 -0.4,0 -0.1,0 -0.3,0 -0.4,0 -0.1,0 -0.3,0 -0.4,0 -0.1,0 -0.2,0 -0.4,0 z"
   id="path54"
   inkscape:connector-curvature="0"
   style="fill:#1c2f57" />
	<path
   class="st0"
   d="m 60.8,158.9 c 0,-0.6 -0.2,-1 -0.5,-1.3 -0.3,-0.3 -0.8,-0.4 -1.3,-0.4 -0.4,0 -0.7,0 -1,0.1 -0.3,0.1 -0.6,0.1 -0.9,0.2 -0.2,-0.3 -0.3,-0.7 -0.3,-1.2 0.3,-0.1 0.7,-0.2 1.2,-0.3 0.4,-0.1 0.8,-0.1 1.2,-0.1 1,0 1.8,0.2 2.3,0.7 0.5,0.5 0.8,1.2 0.8,2.2 v 4.9 c -0.4,0.1 -0.8,0.2 -1.3,0.3 -0.5,0.1 -1,0.1 -1.6,0.1 -0.5,0 -1,0 -1.4,-0.1 -0.4,-0.1 -0.8,-0.2 -1,-0.4 -0.3,-0.2 -0.5,-0.5 -0.7,-0.8 -0.2,-0.3 -0.2,-0.7 -0.2,-1.2 0,-0.4 0.1,-0.8 0.3,-1.2 0.2,-0.3 0.4,-0.6 0.7,-0.8 0.3,-0.2 0.7,-0.4 1.1,-0.5 0.4,-0.1 0.8,-0.2 1.3,-0.2 0.3,0 0.6,0 0.8,0 0.2,0 0.4,0 0.5,0.1 z m 0,1.5 c -0.2,0 -0.3,0 -0.6,-0.1 -0.2,0 -0.4,0 -0.6,0 -0.6,0 -1.1,0.1 -1.5,0.4 -0.3,0.2 -0.5,0.6 -0.5,1.1 0,0.3 0.1,0.6 0.2,0.7 0.1,0.2 0.3,0.3 0.4,0.4 0.2,0.1 0.4,0.1 0.6,0.2 0.2,0 0.4,0 0.6,0 0.2,0 0.5,0 0.7,0 0.3,0 0.5,-0.1 0.7,-0.1 z"
   id="path56"
   inkscape:connector-curvature="0"
   style="fill:#1c2f57" />
	<path
   class="st0"
   d="m 68.4,153.1 c 0.1,0 0.3,0 0.4,0 0.1,0 0.3,0 0.4,0 0.1,0 0.3,0 0.4,0 0.1,0 0.3,0 0.4,0 v 11.1 c -0.1,0 -0.2,0 -0.4,0 -0.1,0 -0.3,0 -0.4,0 -0.1,0 -0.3,0 -0.4,0 -0.1,0 -0.3,0 -0.4,0 z"
   id="path58"
   inkscape:connector-curvature="0"
   style="fill:#1c2f57" />
	<path
   class="st0"
   d="m 72.6,156.2 c 0.1,0 0.2,0 0.3,0 0.1,0 0.2,0 0.3,0 0.1,0 0.2,0 0.3,0 0.1,0 0.2,0 0.3,0 0,0.2 0.1,0.4 0.1,0.6 0,0.3 0,0.5 0,0.7 0.1,-0.2 0.2,-0.3 0.4,-0.5 0.2,-0.2 0.3,-0.3 0.5,-0.5 0.2,-0.1 0.4,-0.3 0.7,-0.3 0.3,-0.1 0.6,-0.1 0.9,-0.1 0.9,0 1.6,0.3 2,0.8 0.4,0.5 0.6,1.3 0.6,2.3 v 5 c -0.1,0 -0.2,0 -0.4,0 -0.1,0 -0.3,0 -0.4,0 -0.1,0 -0.2,0 -0.4,0 -0.1,0 -0.3,0 -0.4,0 v -4.6 c 0,-0.7 -0.1,-1.3 -0.3,-1.6 -0.2,-0.3 -0.6,-0.5 -1.1,-0.5 -0.3,0 -0.6,0.1 -0.8,0.2 -0.3,0.1 -0.5,0.3 -0.7,0.5 -0.2,0.2 -0.4,0.5 -0.5,0.8 -0.1,0.3 -0.2,0.8 -0.2,1.2 v 4 c -0.1,0 -0.2,0 -0.4,0 -0.1,0 -0.3,0 -0.4,0 -0.1,0 -0.2,0 -0.4,0 -0.1,0 -0.3,0 -0.4,0 v -8 z"
   id="path60"
   inkscape:connector-curvature="0"
   style="fill:#1c2f57" />
	<path
   class="st0"
   d="m 81.8,157.4 h -1.2 l -0.1,-0.2 2.7,-3 h 0.1 v 2 h 2 c 0,0.2 0.1,0.4 0.1,0.6 0,0.1 0,0.2 0,0.3 0,0.1 0,0.2 0,0.3 h -2 v 3.6 c 0,0.4 0,0.8 0.1,1 0,0.3 0.1,0.5 0.2,0.6 0.1,0.1 0.2,0.2 0.4,0.3 0.1,0 0.3,0.1 0.6,0.1 0.2,0 0.3,0 0.5,0 0.2,0 0.3,-0.1 0.4,-0.1 0.1,0.2 0.1,0.4 0.1,0.6 0,0.2 0,0.4 0,0.6 -0.2,0 -0.4,0.1 -0.6,0.1 -0.2,0 -0.5,0 -0.7,0 -0.7,0 -1.3,-0.2 -1.7,-0.5 -0.4,-0.4 -0.6,-1 -0.6,-1.8 v -4.5 z"
   id="path62"
   inkscape:connector-curvature="0"
   style="fill:#1c2f57" />
	<path
   class="st0"
   d="m 88.1,160.6 c 0,0.9 0.2,1.5 0.7,1.9 0.4,0.4 1.1,0.6 1.9,0.6 0.7,0 1.4,-0.1 2.1,-0.4 0.1,0.2 0.1,0.3 0.2,0.6 0.1,0.2 0.1,0.4 0.1,0.7 -0.3,0.1 -0.7,0.3 -1.1,0.3 -0.4,0.1 -0.9,0.1 -1.3,0.1 -0.7,0 -1.3,-0.1 -1.9,-0.3 -0.5,-0.2 -0.9,-0.5 -1.3,-0.8 -0.3,-0.4 -0.6,-0.8 -0.7,-1.3 -0.2,-0.5 -0.2,-1 -0.2,-1.6 0,-0.6 0.1,-1.1 0.2,-1.6 0.1,-0.5 0.4,-1 0.7,-1.3 0.3,-0.4 0.7,-0.7 1.2,-0.9 0.5,-0.2 1,-0.3 1.7,-0.3 0.5,0 1,0.1 1.4,0.3 0.4,0.2 0.8,0.4 1,0.8 0.3,0.3 0.5,0.7 0.6,1.2 0.1,0.4 0.2,0.9 0.2,1.5 0,0.1 0,0.3 0,0.5 0,0.2 0,0.3 0,0.4 h -5.5 z m 4,-1.2 c 0,-0.3 0,-0.6 -0.1,-0.8 -0.1,-0.3 -0.2,-0.5 -0.3,-0.7 -0.1,-0.2 -0.3,-0.4 -0.6,-0.5 -0.2,-0.1 -0.5,-0.2 -0.8,-0.2 -0.6,0 -1.1,0.2 -1.4,0.6 -0.3,0.4 -0.5,0.9 -0.6,1.6 z"
   id="path64"
   inkscape:connector-curvature="0"
   style="fill:#1c2f57" />
	<path
   class="st0"
   d="m 99.7,163.1 c 0.9,0 1.6,0.2 2,0.6 0.4,0.4 0.6,0.9 0.6,1.5 0,0.4 -0.1,0.8 -0.3,1.1 -0.2,0.3 -0.5,0.6 -0.9,0.9 -0.4,0.2 -0.8,0.4 -1.3,0.6 -0.5,0.1 -1.1,0.2 -1.7,0.2 -1.1,0 -1.9,-0.2 -2.4,-0.5 -0.6,-0.3 -0.8,-0.8 -0.8,-1.6 0,-0.4 0.1,-0.8 0.3,-1.1 0.2,-0.3 0.5,-0.6 0.9,-0.8 -0.2,-0.1 -0.4,-0.3 -0.5,-0.5 -0.1,-0.2 -0.2,-0.5 -0.2,-0.7 0,-0.4 0.1,-0.7 0.3,-1 0.2,-0.3 0.4,-0.5 0.7,-0.7 -0.3,-0.2 -0.6,-0.5 -0.8,-0.9 -0.2,-0.4 -0.3,-0.8 -0.3,-1.3 0,-0.4 0.1,-0.8 0.2,-1.1 0.1,-0.3 0.4,-0.6 0.6,-0.9 0.3,-0.3 0.6,-0.5 1,-0.6 0.4,-0.1 0.9,-0.2 1.4,-0.2 0.5,0 0.9,0.1 1.3,0.2 0.4,0.1 0.7,0.3 1,0.5 0.2,-0.2 0.5,-0.3 0.8,-0.4 0.3,-0.1 0.7,-0.2 1.2,-0.2 0,0.2 0.1,0.4 0.1,0.6 0,0.1 0,0.2 0,0.4 0,0.1 0,0.2 0,0.4 h -1.4 c 0.1,0.2 0.2,0.4 0.3,0.6 0.1,0.2 0.1,0.4 0.1,0.7 0,0.4 -0.1,0.8 -0.2,1.1 -0.2,0.3 -0.4,0.6 -0.7,0.9 -0.3,0.2 -0.6,0.4 -1,0.6 -0.4,0.1 -0.8,0.2 -1.3,0.2 -0.4,0 -0.8,0 -1.1,-0.1 -0.1,0.1 -0.3,0.2 -0.4,0.4 -0.1,0.2 -0.2,0.4 -0.2,0.5 0,0.2 0.1,0.3 0.2,0.5 0.1,0.1 0.4,0.2 0.9,0.2 z m -2,1.2 c -0.5,0 -0.8,0.1 -1,0.4 -0.2,0.3 -0.3,0.6 -0.3,0.9 0,0.2 0,0.4 0.1,0.6 0.1,0.1 0.2,0.3 0.4,0.3 0.2,0.1 0.4,0.1 0.6,0.2 0.2,0 0.5,0.1 0.8,0.1 0.8,0 1.5,-0.1 1.9,-0.4 0.5,-0.3 0.7,-0.6 0.7,-1 0,-0.3 -0.1,-0.5 -0.3,-0.7 -0.2,-0.2 -0.6,-0.3 -1.1,-0.3 z m 0.7,-3.8 c 0.6,0 1,-0.2 1.2,-0.5 0.3,-0.3 0.4,-0.7 0.4,-1.2 0,-0.5 -0.1,-0.9 -0.4,-1.2 -0.3,-0.3 -0.7,-0.5 -1.2,-0.5 -0.6,0 -1,0.2 -1.2,0.5 -0.3,0.3 -0.4,0.7 -0.4,1.2 0,0.5 0.1,0.9 0.4,1.2 0.2,0.3 0.6,0.5 1.2,0.5 z"
   id="path66"
   inkscape:connector-curvature="0"
   style="fill:#1c2f57" />
	<path
   class="st0"
   d="m 104,156.2 c 0.1,0 0.2,0 0.3,0 0.1,0 0.2,0 0.3,0 0.1,0 0.2,0 0.3,0 0.1,0 0.2,0 0.3,0 0,0.2 0.1,0.4 0.1,0.6 0,0.3 0,0.5 0,0.6 0.2,-0.4 0.5,-0.7 0.9,-0.9 0.4,-0.2 0.8,-0.4 1.4,-0.4 0.1,0 0.2,0 0.3,0 0.1,0 0.2,0 0.2,0 0,0.1 0,0.2 0,0.3 0,0.1 0,0.2 0,0.3 0,0.1 0,0.3 0,0.4 0,0.1 0,0.3 -0.1,0.4 -0.1,0 -0.2,0 -0.3,0 -0.1,0 -0.2,0 -0.2,0 -0.3,0 -0.5,0 -0.8,0.1 -0.3,0.1 -0.5,0.2 -0.7,0.4 -0.2,0.2 -0.4,0.5 -0.5,0.8 -0.1,0.3 -0.2,0.8 -0.2,1.3 v 3.9 c -0.1,0 -0.2,0 -0.4,0 -0.1,0 -0.3,0 -0.4,0 -0.1,0 -0.2,0 -0.4,0 -0.1,0 -0.3,0 -0.4,0 v -7.8 z"
   id="path68"
   inkscape:connector-curvature="0"
   style="fill:#1c2f57" />
	<path
   class="st0"
   d="m 113.8,158.9 c 0,-0.6 -0.2,-1 -0.5,-1.3 -0.3,-0.3 -0.8,-0.4 -1.3,-0.4 -0.4,0 -0.7,0 -1,0.1 -0.3,0.1 -0.6,0.1 -0.9,0.2 -0.2,-0.3 -0.3,-0.7 -0.3,-1.2 0.3,-0.1 0.7,-0.2 1.2,-0.3 0.4,-0.1 0.8,-0.1 1.2,-0.1 1,0 1.8,0.2 2.3,0.7 0.5,0.5 0.8,1.2 0.8,2.2 v 4.9 c -0.4,0.1 -0.8,0.2 -1.3,0.3 -0.5,0.1 -1,0.1 -1.6,0.1 -0.5,0 -1,0 -1.4,-0.1 -0.4,-0.1 -0.8,-0.2 -1,-0.4 -0.3,-0.2 -0.5,-0.5 -0.7,-0.8 -0.2,-0.3 -0.2,-0.7 -0.2,-1.2 0,-0.4 0.1,-0.8 0.3,-1.2 0.2,-0.3 0.4,-0.6 0.7,-0.8 0.3,-0.2 0.7,-0.4 1.1,-0.5 0.4,-0.1 0.8,-0.2 1.3,-0.2 0.3,0 0.6,0 0.8,0 0.2,0 0.4,0 0.5,0.1 z m 0,1.5 c -0.2,0 -0.3,0 -0.6,-0.1 -0.2,0 -0.4,0 -0.6,0 -0.6,0 -1.1,0.1 -1.5,0.4 -0.3,0.2 -0.5,0.6 -0.5,1.1 0,0.3 0.1,0.6 0.2,0.7 0.1,0.2 0.3,0.3 0.4,0.4 0.2,0.1 0.4,0.1 0.6,0.2 0.2,0 0.4,0 0.6,0 0.2,0 0.5,0 0.7,0 0.3,0 0.5,-0.1 0.7,-0.1 z"
   id="path70"
   inkscape:connector-curvature="0"
   style="fill:#1c2f57" />
	<path
   class="st0"
   d="m 117.9,157.4 h -1.2 l -0.1,-0.2 2.7,-3 h 0.1 v 2 h 2 c 0,0.2 0.1,0.4 0.1,0.6 0,0.1 0,0.2 0,0.3 0,0.1 0,0.2 0,0.3 h -2 v 3.6 c 0,0.4 0,0.8 0.1,1 0,0.3 0.1,0.5 0.2,0.6 0.1,0.1 0.2,0.2 0.4,0.3 0.1,0 0.3,0.1 0.6,0.1 0.2,0 0.3,0 0.5,0 0.2,0 0.3,-0.1 0.4,-0.1 0.1,0.2 0.1,0.4 0.1,0.6 0,0.2 0,0.4 0,0.6 -0.2,0 -0.4,0.1 -0.6,0.1 -0.2,0 -0.5,0 -0.7,0 -0.7,0 -1.3,-0.2 -1.7,-0.5 -0.4,-0.4 -0.6,-1 -0.6,-1.8 v -4.5 z"
   id="path72"
   inkscape:connector-curvature="0"
   style="fill:#1c2f57" />
	<path
   class="st0"
   d="m 127.3,158.9 c 0,-0.6 -0.2,-1 -0.5,-1.3 -0.3,-0.3 -0.8,-0.4 -1.3,-0.4 -0.4,0 -0.7,0 -1,0.1 -0.3,0.1 -0.6,0.1 -0.9,0.2 -0.2,-0.3 -0.3,-0.7 -0.3,-1.2 0.3,-0.1 0.7,-0.2 1.2,-0.3 0.4,-0.1 0.8,-0.1 1.2,-0.1 1,0 1.8,0.2 2.3,0.7 0.5,0.5 0.8,1.2 0.8,2.2 v 4.9 c -0.4,0.1 -0.8,0.2 -1.3,0.3 -0.5,0.1 -1,0.1 -1.6,0.1 -0.5,0 -1,0 -1.4,-0.1 -0.4,-0.1 -0.8,-0.2 -1,-0.4 -0.3,-0.2 -0.5,-0.5 -0.7,-0.8 -0.2,-0.3 -0.2,-0.7 -0.2,-1.2 0,-0.4 0.1,-0.8 0.3,-1.2 0.2,-0.3 0.4,-0.6 0.7,-0.8 0.3,-0.2 0.7,-0.4 1.1,-0.5 0.4,-0.1 0.8,-0.2 1.3,-0.2 0.3,0 0.6,0 0.8,0 0.2,0 0.4,0 0.5,0.1 z m -1.4,-3.8 c -0.2,0 -0.5,0 -0.8,-0.1 -0.3,-0.1 -0.5,-0.2 -0.8,-0.3 -0.2,-0.2 -0.5,-0.4 -0.6,-0.6 -0.1,-0.2 -0.3,-0.6 -0.4,-1 0.1,0 0.2,-0.1 0.4,-0.1 0.2,0 0.2,0 0.4,0 0.1,0 0.2,0 0.3,0 0.1,0 0.2,0 0.3,0.1 0,0.1 0,0.2 0.1,0.4 0,0.1 0.1,0.2 0.2,0.3 0.1,0.1 0.2,0.2 0.3,0.2 0.1,0.1 0.3,0.1 0.5,0.1 0.2,0 0.4,0 0.5,-0.1 0.1,-0.1 0.3,-0.1 0.3,-0.2 0.1,-0.1 0.2,-0.2 0.2,-0.3 0,-0.1 0.1,-0.2 0.1,-0.4 0.1,0 0.2,0 0.4,-0.1 0.1,0 0.2,0 0.3,0 0.1,0 0.2,0 0.3,0 0.1,0 0.2,0 0.3,0.1 -0.1,0.4 -0.2,0.8 -0.4,1 -0.2,0.3 -0.4,0.5 -0.6,0.6 -0.2,0.2 -0.5,0.3 -0.8,0.3 0,0.1 -0.3,0.1 -0.5,0.1 z m 1.4,5.3 c -0.2,0 -0.3,0 -0.6,-0.1 -0.2,0 -0.4,0 -0.6,0 -0.6,0 -1.1,0.1 -1.5,0.4 -0.3,0.2 -0.5,0.6 -0.5,1.1 0,0.3 0.1,0.6 0.2,0.7 0.1,0.2 0.3,0.3 0.4,0.4 0.2,0.1 0.4,0.1 0.6,0.2 0.2,0 0.4,0 0.6,0 0.2,0 0.5,0 0.7,0 0.3,0 0.5,-0.1 0.7,-0.1 z"
   id="path74"
   inkscape:connector-curvature="0"
   style="fill:#1c2f57" />
	<path
   class="st0"
   d="m 139.8,152.8 c 0.1,0 0.2,0 0.4,0 0.1,0 0.3,0 0.4,0 0.1,0 0.2,0 0.4,0 0.1,0 0.3,0 0.4,0 v 11.1 c -0.4,0.1 -0.8,0.2 -1.3,0.3 -0.5,0.1 -1,0.1 -1.6,0.1 -0.6,0 -1.1,-0.1 -1.6,-0.2 -0.5,-0.1 -0.9,-0.4 -1.3,-0.7 -0.4,-0.3 -0.7,-0.7 -0.9,-1.2 -0.2,-0.5 -0.3,-1.1 -0.3,-1.9 0,-0.6 0.1,-1.2 0.3,-1.7 0.2,-0.5 0.5,-1 0.8,-1.3 0.3,-0.4 0.8,-0.7 1.3,-0.9 0.5,-0.2 1,-0.3 1.6,-0.3 0.3,0 0.5,0 0.8,0.1 0.3,0 0.5,0.1 0.7,0.2 v -3.6 z m 0,4.8 c -0.2,-0.1 -0.4,-0.1 -0.7,-0.2 -0.2,0 -0.5,-0.1 -0.8,-0.1 -0.4,0 -0.8,0.1 -1.1,0.2 -0.3,0.2 -0.6,0.4 -0.8,0.6 -0.2,0.3 -0.3,0.6 -0.4,0.9 -0.1,0.4 -0.1,0.8 -0.1,1.2 0,1 0.2,1.7 0.7,2.1 0.5,0.4 1.1,0.6 1.9,0.6 0.3,0 0.5,0 0.7,0 0.2,0 0.4,-0.1 0.6,-0.1 z"
   id="path76"
   inkscape:connector-curvature="0"
   style="fill:#1c2f57" />
	<path
   class="st0"
   d="m 144.9,160.6 c 0,0.9 0.2,1.5 0.7,1.9 0.4,0.4 1.1,0.6 1.9,0.6 0.7,0 1.4,-0.1 2.1,-0.4 0.1,0.2 0.1,0.3 0.2,0.6 0.1,0.2 0.1,0.4 0.1,0.7 -0.3,0.1 -0.7,0.3 -1.1,0.3 -0.4,0.1 -0.9,0.1 -1.3,0.1 -0.7,0 -1.3,-0.1 -1.9,-0.3 -0.5,-0.2 -0.9,-0.5 -1.3,-0.8 -0.3,-0.4 -0.6,-0.8 -0.7,-1.3 -0.2,-0.5 -0.2,-1 -0.2,-1.6 0,-0.6 0.1,-1.1 0.2,-1.6 0.1,-0.5 0.4,-1 0.7,-1.3 0.3,-0.4 0.7,-0.7 1.2,-0.9 0.5,-0.2 1,-0.3 1.7,-0.3 0.5,0 1,0.1 1.4,0.3 0.4,0.2 0.8,0.4 1,0.8 0.3,0.3 0.5,0.7 0.6,1.2 0.1,0.4 0.2,0.9 0.2,1.5 0,0.1 0,0.3 0,0.5 0,0.2 0,0.3 0,0.4 h -5.5 z m 3.9,-1.2 c 0,-0.3 0,-0.6 -0.1,-0.8 -0.1,-0.3 -0.2,-0.5 -0.3,-0.7 -0.1,-0.2 -0.3,-0.4 -0.6,-0.5 -0.2,-0.1 -0.5,-0.2 -0.8,-0.2 -0.6,0 -1.1,0.2 -1.4,0.6 -0.3,0.4 -0.5,0.9 -0.6,1.6 z"
   id="path78"
   inkscape:connector-curvature="0"
   style="fill:#1c2f57" />
	<path
   class="st0"
   d="m 156.1,153.1 c 0.3,0 0.8,-0.1 1.3,-0.1 0.5,0 1,-0.1 1.4,-0.1 1.9,0 3.4,0.5 4.4,1.5 1,1 1.4,2.4 1.4,4.3 0,1.9 -0.5,3.4 -1.5,4.3 -1,0.9 -2.4,1.4 -4.4,1.4 -0.5,0 -1,0 -1.4,-0.1 -0.5,0 -0.9,-0.1 -1.2,-0.1 z m 1.6,9.7 c 0.1,0 0.3,0 0.5,0.1 0.2,0 0.4,0 0.7,0 0.6,0 1.2,-0.1 1.7,-0.2 0.5,-0.1 0.9,-0.4 1.3,-0.7 0.4,-0.3 0.6,-0.8 0.8,-1.3 0.2,-0.6 0.3,-1.3 0.3,-2.1 0,-0.8 -0.1,-1.4 -0.3,-2 -0.2,-0.5 -0.5,-1 -0.8,-1.3 -0.4,-0.3 -0.8,-0.6 -1.3,-0.7 -0.5,-0.2 -1,-0.2 -1.6,-0.2 -0.2,0 -0.4,0 -0.6,0 -0.2,0 -0.4,0 -0.6,0.1 v 8.3 z"
   id="path80"
   inkscape:connector-curvature="0"
   style="fill:#1c2f57" />
	<path
   class="st0"
   d="m 167.9,160.6 c 0,0.9 0.2,1.5 0.7,1.9 0.4,0.4 1.1,0.6 1.9,0.6 0.7,0 1.4,-0.1 2.1,-0.4 0.1,0.2 0.1,0.3 0.2,0.6 0.1,0.2 0.1,0.4 0.1,0.7 -0.3,0.1 -0.7,0.3 -1.1,0.3 -0.4,0.1 -0.9,0.1 -1.3,0.1 -0.7,0 -1.3,-0.1 -1.9,-0.3 -0.5,-0.2 -0.9,-0.5 -1.3,-0.8 -0.3,-0.4 -0.6,-0.8 -0.7,-1.3 -0.2,-0.5 -0.2,-1 -0.2,-1.6 0,-0.6 0.1,-1.1 0.2,-1.6 0.1,-0.5 0.4,-1 0.7,-1.3 0.3,-0.4 0.7,-0.7 1.2,-0.9 0.5,-0.2 1,-0.3 1.7,-0.3 0.5,0 1,0.1 1.4,0.3 0.4,0.2 0.8,0.4 1,0.8 0.3,0.3 0.5,0.7 0.6,1.2 0.1,0.4 0.2,0.9 0.2,1.5 0,0.1 0,0.3 0,0.5 0,0.2 0,0.3 0,0.4 h -5.5 z m 3.9,-1.2 c 0,-0.3 0,-0.6 -0.1,-0.8 -0.1,-0.3 -0.2,-0.5 -0.3,-0.7 -0.1,-0.2 -0.3,-0.4 -0.6,-0.5 -0.2,-0.1 -0.5,-0.2 -0.8,-0.2 -0.6,0 -1.1,0.2 -1.4,0.6 -0.3,0.4 -0.5,0.9 -0.6,1.6 z"
   id="path82"
   inkscape:connector-curvature="0"
   style="fill:#1c2f57" />
	<path
   class="st0"
   d="m 174.3,163.9 4.2,-6.5 h -3.7 c 0,-0.2 0,-0.4 0,-0.6 0,-0.2 0,-0.4 0,-0.6 h 5.9 l 0.1,0.2 -4.2,6.5 h 3.9 c 0,0.2 0,0.4 0,0.6 0,0.2 0,0.4 0,0.6 h -6.2 z"
   id="path84"
   inkscape:connector-curvature="0"
   style="fill:#1c2f57" />
	<path
   class="st0"
   d="m 181.5,156.2 c 0.1,0 0.3,0 0.4,0 0.2,0 0.3,0 0.4,0 0.1,0 0.3,0 0.4,0 0.2,0 0.3,0 0.4,0 l 2.2,6.5 2.2,-6.5 c 0.1,0 0.2,0 0.4,0 0.1,0 0.3,0 0.4,0 0.1,0 0.2,0 0.4,0 0.1,0 0.3,0 0.4,0 l -3.1,7.9 c -0.1,0 -0.3,0 -0.4,0 -0.1,0 -0.3,0 -0.4,0 -0.1,0 -0.2,0 -0.4,0 -0.1,0 -0.3,0 -0.4,0 z"
   id="path86"
   inkscape:connector-curvature="0"
   style="fill:#1c2f57" />
	<path
   class="st0"
   d="m 193.5,164.3 c -0.6,0 -1.2,-0.1 -1.6,-0.3 -0.5,-0.2 -0.8,-0.5 -1.2,-0.9 -0.3,-0.4 -0.5,-0.8 -0.7,-1.3 -0.1,-0.5 -0.2,-1 -0.2,-1.6 0,-0.6 0.1,-1.1 0.2,-1.6 0.1,-0.5 0.4,-0.9 0.7,-1.3 0.3,-0.4 0.7,-0.7 1.2,-0.9 0.5,-0.2 1,-0.3 1.6,-0.3 0.6,0 1.2,0.1 1.6,0.3 0.5,0.2 0.8,0.5 1.2,0.9 0.3,0.4 0.5,0.8 0.7,1.3 0.2,0.5 0.2,1 0.2,1.6 0,0.6 -0.1,1.1 -0.2,1.6 -0.1,0.5 -0.4,0.9 -0.7,1.3 -0.3,0.4 -0.7,0.7 -1.2,0.9 -0.4,0.2 -0.9,0.3 -1.6,0.3 z m 0,-1.2 c 0.7,0 1.2,-0.3 1.6,-0.8 0.3,-0.5 0.5,-1.2 0.5,-2.1 0,-0.9 -0.2,-1.6 -0.5,-2.1 -0.3,-0.5 -0.9,-0.8 -1.6,-0.8 -0.7,0 -1.2,0.3 -1.6,0.8 -0.3,0.5 -0.5,1.2 -0.5,2.1 0,0.9 0.2,1.6 0.5,2.1 0.4,0.6 0.9,0.8 1.6,0.8 z"
   id="path88"
   inkscape:connector-curvature="0"
   style="fill:#1c2f57" />
	<path
   class="st0"
   d="m 199.2,152.8 c 0.1,0 0.2,0 0.4,0 0.2,0 0.3,0 0.4,0 0.1,0 0.2,0 0.4,0 0.1,0 0.3,0 0.4,0 v 8.9 c 0,0.3 0,0.5 0.1,0.7 0.1,0.2 0.1,0.3 0.2,0.4 0.1,0.1 0.2,0.1 0.3,0.2 0.1,0 0.2,0 0.4,0 0.1,0 0.2,0 0.3,0 0.1,0 0.2,0 0.3,0 0.1,0.4 0.1,0.8 0.1,1.2 -0.1,0 -0.3,0.1 -0.5,0.1 -0.2,0 -0.4,0 -0.6,0 -0.3,0 -0.6,0 -0.8,-0.1 -0.3,-0.1 -0.5,-0.2 -0.7,-0.4 -0.2,-0.2 -0.3,-0.4 -0.5,-0.7 -0.1,-0.3 -0.2,-0.6 -0.2,-1 z"
   id="path90"
   inkscape:connector-curvature="0"
   style="fill:#1c2f57" />
	<path
   class="st0"
   d="m 204.1,157.4 h -1.2 l -0.1,-0.2 2.7,-3 h 0.1 v 2 h 2 c 0,0.2 0.1,0.4 0.1,0.6 0,0.1 0,0.2 0,0.3 0,0.1 0,0.2 0,0.3 h -2 v 3.6 c 0,0.4 0,0.8 0.1,1 0,0.3 0.1,0.5 0.2,0.6 0.1,0.1 0.2,0.2 0.4,0.3 0.1,0 0.3,0.1 0.6,0.1 0.2,0 0.3,0 0.5,0 0.2,0 0.3,-0.1 0.4,-0.1 0.1,0.2 0.1,0.4 0.1,0.6 0,0.2 0,0.4 0,0.6 -0.2,0 -0.4,0.1 -0.6,0.1 -0.2,0 -0.5,0 -0.7,0 -0.7,0 -1.3,-0.2 -1.7,-0.5 -0.4,-0.4 -0.6,-1 -0.6,-1.8 v -4.5 z"
   id="path92"
   inkscape:connector-curvature="0"
   style="fill:#1c2f57" />
	<path
   class="st0"
   d="m 213.5,158.9 c 0,-0.6 -0.2,-1 -0.5,-1.3 -0.3,-0.2 -0.8,-0.4 -1.3,-0.4 -0.4,0 -0.7,0 -1,0.1 -0.3,0.1 -0.6,0.1 -0.9,0.2 -0.2,-0.3 -0.3,-0.7 -0.3,-1.2 0.4,-0.1 0.7,-0.2 1.2,-0.3 0.4,-0.1 0.8,-0.1 1.2,-0.1 1,0 1.8,0.2 2.3,0.7 0.5,0.5 0.8,1.2 0.8,2.2 v 4.9 c -0.4,0.1 -0.8,0.2 -1.3,0.3 -0.5,0.1 -1,0.1 -1.6,0.1 -0.5,0 -1,0 -1.4,-0.1 -0.4,-0.1 -0.7,-0.2 -1,-0.4 -0.3,-0.2 -0.5,-0.5 -0.7,-0.8 -0.2,-0.3 -0.2,-0.7 -0.2,-1.2 0,-0.4 0.1,-0.8 0.3,-1.2 0.2,-0.3 0.4,-0.6 0.7,-0.8 0.3,-0.2 0.7,-0.4 1.1,-0.5 0.4,-0.1 0.8,-0.2 1.3,-0.2 0.3,0 0.6,0 0.8,0 0.2,0 0.4,0 0.5,0.1 z m 0,1.5 c -0.2,0 -0.4,0 -0.6,-0.1 -0.2,0 -0.4,0 -0.6,0 -0.6,0 -1.1,0.1 -1.5,0.4 -0.3,0.2 -0.5,0.6 -0.5,1.1 0,0.3 0.1,0.6 0.2,0.7 0.1,0.2 0.3,0.3 0.4,0.4 0.2,0.1 0.4,0.1 0.6,0.2 0.2,0 0.4,0 0.6,0 0.2,0 0.5,0 0.7,0 0.3,0 0.5,-0.1 0.7,-0.1 z"
   id="path94"
   inkscape:connector-curvature="0"
   style="fill:#1c2f57" />
	<path
   class="st0"
   d="m 217.3,156.2 c 0.1,0 0.2,0 0.3,0 0.1,0 0.2,0 0.3,0 0.1,0 0.2,0 0.3,0 0.1,0 0.2,0 0.3,0 0,0.2 0.1,0.4 0.1,0.6 0,0.3 0,0.5 0,0.6 0.2,-0.4 0.5,-0.7 0.9,-0.9 0.4,-0.3 0.8,-0.4 1.4,-0.4 0.1,0 0.2,0 0.3,0 0.1,0 0.2,0 0.2,0 0,0.1 0,0.2 0,0.3 0,0.1 0,0.2 0,0.3 0,0.1 0,0.3 0,0.4 0,0.1 0,0.3 -0.1,0.4 -0.1,0 -0.2,0 -0.3,0 -0.1,0 -0.2,0 -0.2,0 -0.3,0 -0.5,0 -0.8,0.1 -0.3,0.1 -0.5,0.2 -0.7,0.4 -0.2,0.2 -0.4,0.5 -0.5,0.8 -0.1,0.3 -0.2,0.8 -0.2,1.3 v 3.9 c -0.1,0 -0.2,0 -0.4,0 -0.1,0 -0.3,0 -0.4,0 -0.1,0 -0.2,0 -0.4,0 -0.1,0 -0.3,0 -0.4,0 v -7.8 z"
   id="path96"
   inkscape:connector-curvature="0"
   style="fill:#1c2f57" />
	<path
   class="st0"
   d="m 224,160.6 c 0,0.9 0.2,1.5 0.7,1.9 0.4,0.4 1.1,0.6 1.9,0.6 0.7,0 1.4,-0.1 2.1,-0.4 0.1,0.2 0.1,0.3 0.2,0.6 0.1,0.2 0.1,0.4 0.1,0.7 -0.3,0.1 -0.7,0.3 -1.1,0.3 -0.4,0.1 -0.9,0.1 -1.3,0.1 -0.7,0 -1.3,-0.1 -1.9,-0.3 -0.5,-0.2 -0.9,-0.5 -1.3,-0.8 -0.3,-0.4 -0.6,-0.8 -0.7,-1.3 -0.2,-0.5 -0.2,-1 -0.2,-1.6 0,-0.6 0.1,-1.1 0.2,-1.6 0.1,-0.5 0.4,-1 0.7,-1.3 0.3,-0.3 0.7,-0.7 1.2,-0.9 0.5,-0.2 1,-0.3 1.7,-0.3 0.5,0 1,0.1 1.4,0.3 0.4,0.2 0.8,0.4 1,0.8 0.3,0.3 0.5,0.7 0.6,1.2 0.1,0.4 0.2,0.9 0.2,1.5 0,0.1 0,0.3 0,0.5 0,0.2 0,0.3 0,0.4 H 224 Z m 3.9,-1.2 c 0,-0.3 0,-0.6 -0.1,-0.8 -0.1,-0.3 -0.2,-0.5 -0.3,-0.7 -0.1,-0.2 -0.3,-0.4 -0.6,-0.5 -0.2,-0.1 -0.5,-0.2 -0.8,-0.2 -0.6,0 -1.1,0.2 -1.4,0.6 -0.3,0.4 -0.5,0.9 -0.6,1.6 z"
   id="path98"
   inkscape:connector-curvature="0"
   style="fill:#1c2f57" />
	<path
   class="st0"
   d="m 235.1,153.1 c 0.2,0 0.5,0 0.8,0 0.3,0 0.5,0 0.8,0 v 6.3 c 0,0.6 0,1.2 0.1,1.6 0.1,0.5 0.2,0.8 0.4,1.1 0.2,0.3 0.4,0.5 0.7,0.6 0.3,0.1 0.7,0.2 1.1,0.2 0.4,0 0.8,-0.1 1.1,-0.2 0.3,-0.1 0.5,-0.3 0.7,-0.6 0.2,-0.3 0.3,-0.7 0.4,-1.1 0.1,-0.5 0.1,-1 0.1,-1.6 v -6.3 c 0.3,0 0.5,0 0.8,0 0.3,0 0.6,0 0.8,0 v 6.6 c 0,0.7 -0.1,1.4 -0.2,2 -0.1,0.6 -0.4,1.1 -0.7,1.5 -0.3,0.4 -0.7,0.7 -1.2,0.9 -0.5,0.2 -1.1,0.3 -1.8,0.3 -0.7,0 -1.3,-0.1 -1.8,-0.3 -0.5,-0.2 -0.9,-0.5 -1.2,-0.9 -0.3,-0.4 -0.5,-0.9 -0.7,-1.5 -0.1,-0.6 -0.2,-1.2 -0.2,-2 z"
   id="path100"
   inkscape:connector-curvature="0"
   style="fill:#1c2f57" />
	<path
   class="st0"
   d="m 245.5,156.2 c 0.1,0 0.2,0 0.3,0 0.1,0 0.2,0 0.3,0 0.1,0 0.2,0 0.3,0 0.1,0 0.2,0 0.3,0 0,0.2 0.1,0.4 0.1,0.6 0,0.3 0,0.5 0,0.6 0.2,-0.4 0.5,-0.7 0.9,-0.9 0.4,-0.3 0.8,-0.4 1.4,-0.4 0.1,0 0.2,0 0.3,0 0.1,0 0.2,0 0.2,0 0,0.1 0,0.2 0,0.3 0,0.1 0,0.2 0,0.3 0,0.1 0,0.3 0,0.4 0,0.1 0,0.3 -0.1,0.4 -0.1,0 -0.2,0 -0.3,0 -0.1,0 -0.2,0 -0.2,0 -0.3,0 -0.5,0 -0.8,0.1 -0.3,0.1 -0.5,0.2 -0.7,0.4 -0.2,0.2 -0.4,0.5 -0.5,0.8 -0.1,0.3 -0.2,0.8 -0.2,1.3 v 3.9 c -0.1,0 -0.2,0 -0.4,0 -0.1,0 -0.3,0 -0.4,0 -0.1,0 -0.2,0 -0.4,0 -0.1,0 -0.3,0 -0.4,0 v -7.8 z"
   id="path102"
   inkscape:connector-curvature="0"
   style="fill:#1c2f57" />
	<path
   class="st0"
   d="m 251.2,152.8 c 0.1,0 0.2,0 0.4,0 0.2,0 0.3,0 0.4,0 0.1,0 0.2,0 0.4,0 0.1,0 0.3,0 0.4,0 v 4.4 c 0.2,-0.3 0.5,-0.6 0.9,-0.8 0.4,-0.2 0.9,-0.3 1.4,-0.3 0.5,0 0.9,0.1 1.3,0.2 0.4,0.2 0.7,0.4 1,0.7 0.3,0.3 0.5,0.7 0.7,1.2 0.2,0.5 0.2,1.1 0.2,1.8 0,1.4 -0.4,2.4 -1.2,3.2 -0.8,0.8 -1.9,1.1 -3.3,1.1 -0.5,0 -0.9,0 -1.4,-0.1 -0.5,-0.1 -0.9,-0.2 -1.2,-0.3 z m 1.5,10.1 c 0.2,0.1 0.4,0.1 0.6,0.1 0.2,0 0.4,0 0.7,0 0.4,0 0.7,-0.1 1.1,-0.2 0.3,-0.1 0.6,-0.3 0.8,-0.5 0.2,-0.2 0.4,-0.6 0.6,-0.9 0.1,-0.4 0.2,-0.8 0.2,-1.3 0,-0.9 -0.1,-1.5 -0.4,-2 -0.3,-0.5 -0.8,-0.7 -1.5,-0.7 -0.2,0 -0.5,0 -0.7,0.1 -0.2,0.1 -0.4,0.2 -0.6,0.4 -0.2,0.2 -0.4,0.4 -0.5,0.7 -0.1,0.3 -0.2,0.6 -0.2,1 v 3.3 z"
   id="path104"
   inkscape:connector-curvature="0"
   style="fill:#1c2f57" />
	<path
   class="st0"
   d="m 264.5,158.9 c 0,-0.6 -0.2,-1 -0.5,-1.3 -0.3,-0.3 -0.8,-0.4 -1.3,-0.4 -0.4,0 -0.7,0 -1,0.1 -0.3,0.1 -0.6,0.1 -0.9,0.2 -0.2,-0.3 -0.3,-0.7 -0.3,-1.2 0.4,-0.1 0.7,-0.2 1.2,-0.3 0.4,-0.1 0.8,-0.1 1.2,-0.1 1,0 1.8,0.2 2.3,0.7 0.5,0.5 0.8,1.2 0.8,2.2 v 4.9 c -0.4,0.1 -0.8,0.2 -1.3,0.3 -0.5,0.1 -1,0.1 -1.6,0.1 -0.5,0 -1,0 -1.4,-0.1 -0.4,-0.1 -0.7,-0.2 -1,-0.4 -0.3,-0.2 -0.5,-0.5 -0.7,-0.8 -0.2,-0.3 -0.2,-0.7 -0.2,-1.2 0,-0.4 0.1,-0.8 0.3,-1.2 0.2,-0.3 0.4,-0.6 0.7,-0.8 0.3,-0.2 0.7,-0.4 1.1,-0.5 0.4,-0.1 0.8,-0.2 1.3,-0.2 0.3,0 0.6,0 0.8,0 0.2,0 0.4,0 0.5,0.1 z m 0,1.5 c -0.2,0 -0.4,0 -0.6,-0.1 -0.2,0 -0.4,0 -0.6,0 -0.6,0 -1.1,0.1 -1.5,0.4 -0.3,0.2 -0.5,0.6 -0.5,1.1 0,0.3 0.1,0.6 0.2,0.7 0.1,0.2 0.3,0.3 0.4,0.4 0.2,0.1 0.4,0.1 0.6,0.2 0.2,0 0.4,0 0.6,0 0.2,0 0.5,0 0.7,0 0.3,0 0.5,-0.1 0.7,-0.1 z"
   id="path106"
   inkscape:connector-curvature="0"
   style="fill:#1c2f57" />
	<path
   class="st0"
   d="m 268.3,156.2 c 0.1,0 0.2,0 0.3,0 0.1,0 0.2,0 0.3,0 0.1,0 0.2,0 0.3,0 0.1,0 0.2,0 0.3,0 0,0.2 0.1,0.4 0.1,0.6 0,0.3 0,0.5 0,0.7 0.1,-0.2 0.2,-0.3 0.4,-0.5 0.2,-0.2 0.3,-0.3 0.5,-0.5 0.2,-0.1 0.4,-0.3 0.7,-0.3 0.3,-0.1 0.6,-0.1 0.9,-0.1 0.9,0 1.6,0.3 2,0.8 0.4,0.5 0.6,1.3 0.6,2.3 v 5 c -0.1,0 -0.2,0 -0.4,0 -0.1,0 -0.3,0 -0.4,0 -0.1,0 -0.2,0 -0.4,0 -0.1,0 -0.3,0 -0.4,0 v -4.6 c 0,-0.7 -0.1,-1.3 -0.3,-1.6 -0.2,-0.3 -0.6,-0.5 -1.1,-0.5 -0.3,0 -0.6,0.1 -0.8,0.2 -0.3,0.1 -0.5,0.3 -0.7,0.5 -0.2,0.2 -0.4,0.5 -0.5,0.8 -0.1,0.3 -0.2,0.8 -0.2,1.2 v 4 c -0.1,0 -0.2,0 -0.4,0 -0.1,0 -0.3,0 -0.4,0 -0.1,0 -0.2,0 -0.4,0 -0.1,0 -0.3,0 -0.4,0 v -8 z"
   id="path108"
   inkscape:connector-curvature="0"
   style="fill:#1c2f57" />
	<path
   class="st0"
   d="m 281.4,158.9 c 0,-0.6 -0.2,-1 -0.5,-1.3 -0.3,-0.3 -0.8,-0.4 -1.3,-0.4 -0.4,0 -0.7,0 -1,0.1 -0.3,0.1 -0.6,0.1 -0.9,0.2 -0.2,-0.3 -0.3,-0.7 -0.3,-1.2 0.4,-0.1 0.7,-0.2 1.2,-0.3 0.4,-0.1 0.8,-0.1 1.2,-0.1 1,0 1.8,0.2 2.3,0.7 0.5,0.5 0.8,1.2 0.8,2.2 v 4.9 c -0.4,0.1 -0.8,0.2 -1.3,0.3 -0.5,0.1 -1,0.1 -1.6,0.1 -0.5,0 -1,0 -1.4,-0.1 -0.4,-0.1 -0.7,-0.2 -1,-0.4 -0.3,-0.2 -0.5,-0.5 -0.7,-0.8 -0.2,-0.3 -0.2,-0.7 -0.2,-1.2 0,-0.4 0.1,-0.8 0.3,-1.2 0.2,-0.3 0.4,-0.6 0.7,-0.8 0.3,-0.2 0.7,-0.4 1.1,-0.5 0.4,-0.1 0.8,-0.2 1.3,-0.2 0.3,0 0.6,0 0.8,0 0.2,0 0.4,0 0.5,0.1 z m -1.4,-3.8 c -0.2,0 -0.5,0 -0.8,-0.1 -0.3,-0.1 -0.5,-0.2 -0.8,-0.3 -0.2,-0.2 -0.5,-0.4 -0.6,-0.6 -0.1,-0.2 -0.3,-0.6 -0.4,-1 0.1,0 0.2,-0.1 0.4,-0.1 0.1,0 0.2,0 0.4,0 0.1,0 0.2,0 0.3,0 0.1,0 0.2,0 0.3,0.1 0,0.1 0,0.2 0.1,0.4 0,0.1 0.1,0.2 0.2,0.3 0.1,0.1 0.2,0.2 0.3,0.2 0.1,0.1 0.3,0.1 0.5,0.1 0.2,0 0.4,0 0.5,-0.1 0.1,-0.1 0.3,-0.1 0.3,-0.2 0.1,-0.1 0.2,-0.2 0.2,-0.3 0,-0.1 0.1,-0.2 0.1,-0.4 0.1,0 0.2,0 0.4,-0.1 0.1,0 0.2,0 0.3,0 0.1,0 0.2,0 0.3,0 0.1,0 0.2,0 0.3,0.1 0,0.4 -0.2,0.8 -0.4,1 -0.2,0.3 -0.4,0.5 -0.6,0.6 -0.2,0.2 -0.5,0.3 -0.8,0.3 0,0.1 -0.3,0.1 -0.5,0.1 z m 1.4,5.3 c -0.2,0 -0.4,0 -0.6,-0.1 -0.2,0 -0.4,0 -0.6,0 -0.6,0 -1.1,0.1 -1.5,0.4 -0.3,0.2 -0.5,0.6 -0.5,1.1 0,0.3 0.1,0.6 0.2,0.7 0.1,0.2 0.3,0.3 0.4,0.4 0.2,0.1 0.4,0.1 0.6,0.2 0.2,0 0.4,0 0.6,0 0.2,0 0.5,0 0.7,0 0.3,0 0.5,-0.1 0.7,-0.1 z"
   id="path110"
   inkscape:connector-curvature="0"
   style="fill:#1c2f57" />
</g>
<circle
   transform="rotate(-32.507667)"
   class="st0"
   cx="234.22339"
   cy="165.38719"
   id="ellipse114"
   r="13.599686"
   style="fill:#1c2f57;stroke-width:0.99997681" />
</svg>