<?xml version="1.0" encoding="UTF-8" standalone="no"?>
<!-- Generator: Adobe Illustrator 21.0.0, SVG Export Plug-In . SVG Version: 6.00 Build 0)  -->

<svg
   xmlns:dc="http://purl.org/dc/elements/1.1/"
   xmlns:cc="http://creativecommons.org/ns#"
   xmlns:rdf="http://www.w3.org/1999/02/22-rdf-syntax-ns#"
   xmlns:svg="http://www.w3.org/2000/svg"
   xmlns="http://www.w3.org/2000/svg"
   xmlns:sodipodi="http://sodipodi.sourceforge.net/DTD/sodipodi-0.dtd"
   xmlns:inkscape="http://www.inkscape.org/namespaces/inkscape"
   version="1.1"
   id="Layer_1"
   x="0px"
   y="0px"
   viewBox="0 0 296.90607 132.31859"
   xml:space="preserve"
   sodipodi:docname="logo_bucuresti_2050_text_fara-subtitlu_bicrom.svg"
   width="296.90607"
   height="132.31859"
   inkscape:version="0.92.4 5da689c313, 2019-01-14"><metadata
   id="metadata47"><rdf:RDF><cc:Work
       rdf:about=""><dc:format>image/svg+xml</dc:format><dc:type
         rdf:resource="http://purl.org/dc/dcmitype/StillImage" /><dc:title></dc:title></cc:Work></rdf:RDF></metadata><defs
   id="defs45" /><sodipodi:namedview
   pagecolor="#ffffff"
   bordercolor="#666666"
   borderopacity="1"
   objecttolerance="10"
   gridtolerance="10"
   guidetolerance="10"
   inkscape:pageopacity="0"
   inkscape:pageshadow="2"
   inkscape:window-width="1094"
   inkscape:window-height="791"
   id="namedview43"
   showgrid="false"
   fit-margin-top="0"
   fit-margin-left="0"
   fit-margin-right="0"
   fit-margin-bottom="0"
   inkscape:zoom="1.0231788"
   inkscape:cx="148.1"
   inkscape:cy="66.5"
   inkscape:window-x="2299"
   inkscape:window-y="51"
   inkscape:window-maximized="0"
   inkscape:current-layer="Layer_1" />
<style
   type="text/css"
   id="style2">
	.st0{fill:#113154;}
	.st1{fill:#182E5A;}
	.st2{fill:#FDB716;}
	.st3{fill:#F05325;}
	.st4{fill:#0DAB50;}
	.st5{fill:#E9202F;}
	.st6{fill:#08AA97;}
	.st7{fill:#F78D2A;}
	.st8{fill:#882D8F;}
	.st9{fill:#2BACE2;}
	.st10{fill:#E26B29;}
	.st11{fill:#046269;}
</style>
<g
   id="g22"
   transform="translate(-2.9,-2.6814176)">
	<path
   class="st0"
   d="m 31.1,63.8 c 0,2.4 -0.4,4.5 -1.3,6.1 -0.9,1.6 -2.1,2.9 -3.7,3.8 -1.6,0.9 -3.4,1.6 -5.6,1.9 -2.2,0.3 -4.5,0.6 -7,0.6 -2,0 -3.8,-0.1 -5.4,-0.2 C 6.5,75.9 4.8,75.7 2.9,75.4 V 35.6 c 1.4,-0.2 2.9,-0.4 4.6,-0.6 1.7,-0.2 3.6,-0.2 5.8,-0.2 2.1,0 4.1,0.2 5.9,0.5 1.8,0.4 3.4,0.9 4.8,1.8 1.4,0.8 2.5,1.9 3.2,3.3 0.8,1.4 1.2,3.1 1.2,5.2 0,1.7 -0.4,3.3 -1.2,4.7 -0.8,1.4 -1.8,2.5 -2.9,3.3 0.9,0.3 1.7,0.8 2.5,1.3 0.8,0.5 1.5,1.2 2.1,2 0.6,0.8 1.1,1.8 1.5,2.9 0.6,1.3 0.7,2.6 0.7,4 z m -18.4,-13 h 1.6 c 1.6,0 2.8,-0.3 3.7,-1 0.9,-0.6 1.3,-1.8 1.3,-3.4 0,-0.8 -0.2,-1.4 -0.5,-1.9 -0.3,-0.5 -0.7,-0.9 -1.2,-1.2 -0.5,-0.3 -1,-0.5 -1.6,-0.6 -0.6,-0.1 -1.2,-0.2 -1.7,-0.2 -0.2,0 -0.5,0 -0.8,0 -0.3,0 -0.6,0 -0.8,0.1 z m 0,7.9 V 68 c 0.3,0 0.6,0.1 1,0.1 0.4,0 0.9,0 1.5,0 0.7,0 1.4,-0.1 2.1,-0.2 0.7,-0.1 1.4,-0.4 2,-0.7 0.6,-0.4 1.1,-0.8 1.4,-1.4 0.4,-0.6 0.5,-1.4 0.5,-2.3 0,-1.8 -0.6,-3 -1.7,-3.7 -1.2,-0.7 -2.7,-1 -4.5,-1 h -2.3 z"
   id="path4"
   inkscape:connector-curvature="0"
   style="fill:#113154" />
	<path
   class="st0"
   d="m 51.3,76.1 c -3,0 -5.5,-0.4 -7.5,-1.2 -2,-0.8 -3.5,-2 -4.7,-3.5 C 38,69.9 37.1,68 36.7,65.8 36.2,63.6 36,61.2 36,58.4 V 35.6 c 1.1,-0.1 2,-0.3 2.8,-0.3 0.8,-0.1 1.5,-0.1 2.2,-0.1 0.6,0 1.3,0 2.1,0.1 0.8,0.1 1.7,0.2 2.7,0.3 v 21.6 c 0,1.9 0.1,3.4 0.2,4.7 0.1,1.3 0.4,2.4 0.8,3.2 0.4,0.8 0.9,1.4 1.6,1.7 0.7,0.4 1.6,0.5 2.8,0.5 1.1,0 2.1,-0.2 2.8,-0.5 0.7,-0.4 1.3,-0.9 1.7,-1.7 0.4,-0.8 0.6,-1.9 0.8,-3.2 0.1,-1.3 0.2,-2.9 0.2,-4.7 V 35.6 c 1.1,-0.1 2,-0.3 2.8,-0.3 0.8,-0.1 1.5,-0.1 2.1,-0.1 0.7,0 1.4,0 2.2,0.1 0.8,0.1 1.7,0.2 2.8,0.3 v 22.7 c 0,2.7 -0.2,5.2 -0.7,7.4 -0.5,2.2 -1.3,4 -2.4,5.6 -1.1,1.5 -2.7,2.7 -4.7,3.5 -2.1,0.9 -4.5,1.3 -7.5,1.3 z"
   id="path6"
   inkscape:connector-curvature="0"
   style="fill:#113154" />
	<path
   class="st0"
   d="m 82.3,55.6 c 0,7.9 3.3,11.8 9.9,11.8 1.2,0 2.3,-0.1 3.4,-0.3 1.1,-0.2 2.3,-0.6 3.9,-1.1 1.2,2.7 2,5.4 2.4,8.2 -1.1,0.4 -2.1,0.7 -3,1 -0.9,0.3 -1.8,0.5 -2.7,0.6 -0.9,0.1 -1.7,0.2 -2.5,0.3 -0.8,0.1 -1.7,0.1 -2.6,0.1 -3.1,0 -5.9,-0.5 -8.3,-1.5 -2.4,-1 -4.4,-2.4 -6,-4.2 C 75.2,68.7 74,66.5 73.2,64 72.4,61.5 72,58.7 72,55.8 c 0,-3 0.4,-5.7 1.3,-8.2 0.9,-2.5 2.1,-4.7 3.7,-6.6 1.6,-1.9 3.6,-3.3 6,-4.3 2.4,-1 5.1,-1.6 8.1,-1.6 1.8,0 3.5,0.1 5.1,0.4 1.6,0.3 3.4,0.8 5.3,1.6 -0.1,1.5 -0.4,3 -0.8,4.4 -0.5,1.4 -1,2.7 -1.5,3.7 -0.7,-0.3 -1.4,-0.5 -2,-0.7 C 96.6,44.3 96,44.2 95.5,44.1 94.9,44 94.4,43.9 93.8,43.8 93.2,43.7 92.7,43.7 92,43.7 c -3,0 -5.3,1 -7,3 -1.9,1.9 -2.7,4.9 -2.7,8.9 z"
   id="path8"
   inkscape:connector-curvature="0"
   style="fill:#113154" />
	<path
   class="st0"
   d="m 121.9,76.1 c -3,0 -5.5,-0.4 -7.5,-1.2 -2,-0.8 -3.5,-2 -4.7,-3.5 -1.1,-1.5 -2,-3.4 -2.4,-5.6 -0.5,-2.2 -0.7,-4.6 -0.7,-7.4 V 35.6 c 1.1,-0.1 2,-0.3 2.8,-0.3 0.8,-0.1 1.5,-0.1 2.2,-0.1 0.6,0 1.3,0 2.1,0.1 0.8,0.1 1.7,0.2 2.7,0.3 v 21.6 c 0,1.9 0.1,3.4 0.2,4.7 0.1,1.3 0.4,2.4 0.8,3.2 0.4,0.8 0.9,1.4 1.6,1.7 0.7,0.4 1.6,0.5 2.8,0.5 1.1,0 2.1,-0.2 2.8,-0.5 0.7,-0.4 1.3,-0.9 1.7,-1.7 0.4,-0.8 0.6,-1.9 0.8,-3.2 0.2,-1.3 0.2,-2.9 0.2,-4.7 V 35.6 c 1.1,-0.1 2,-0.3 2.8,-0.3 0.8,-0.1 1.5,-0.1 2.1,-0.1 0.7,0 1.4,0 2.2,0.1 0.8,0.1 1.7,0.2 2.8,0.3 v 22.7 c 0,2.7 -0.2,5.2 -0.7,7.4 -0.5,2.2 -1.3,4 -2.4,5.6 -1.1,1.5 -2.7,2.7 -4.7,3.5 -2.1,0.9 -4.5,1.3 -7.5,1.3 z"
   id="path10"
   inkscape:connector-curvature="0"
   style="fill:#113154" />
	<path
   class="st0"
   d="m 143.6,35.6 c 1.8,-0.2 3.5,-0.4 5,-0.5 1.5,-0.2 3.2,-0.3 4.9,-0.3 2,0 4.1,0.2 6.1,0.6 2,0.4 3.9,1.1 5.4,2 1.6,1 2.9,2.3 3.9,3.9 1,1.7 1.5,3.8 1.5,6.3 0,1.4 -0.2,2.6 -0.5,3.7 -0.3,1.1 -0.7,2.1 -1.2,2.9 -0.5,0.9 -1.1,1.6 -1.7,2.2 -0.6,0.6 -1.2,1.2 -1.8,1.6 l 8.7,17.1 c -0.9,0.1 -1.9,0.3 -2.9,0.3 -1.1,0.1 -2,0.1 -2.9,0.1 -0.7,0 -1.6,0 -2.6,-0.1 -1,-0.1 -1.8,-0.2 -2.6,-0.3 l -7.9,-18.2 0.5,-0.3 c 0.4,-0.2 0.9,-0.6 1.5,-1.1 0.5,-0.5 1,-1.1 1.5,-1.9 0.5,-0.7 0.9,-1.5 1.2,-2.4 0.3,-0.9 0.5,-1.8 0.5,-2.8 0,-1.9 -0.5,-3.2 -1.6,-4.1 -1,-0.9 -2.3,-1.3 -3.8,-1.3 -0.4,0 -0.7,0 -0.9,0.1 -0.3,0 -0.4,0.1 -0.5,0.1 V 75 c -2,0.3 -3.6,0.5 -4.8,0.5 -1.4,0 -3,-0.2 -4.9,-0.5 V 35.6 Z"
   id="path12"
   inkscape:connector-curvature="0"
   style="fill:#113154" />
	<path
   class="st0"
   d="m 198.8,54.6 c 0,1.3 -0.2,2.7 -0.5,4.3 h -10.7 v 7.9 h 13.9 c 0.3,1.6 0.5,3 0.5,4.2 0,1.4 -0.2,2.8 -0.5,4.4 H 177.7 V 35.5 h 23.4 c 0.1,0.8 0.3,1.6 0.3,2.3 0.1,0.7 0.1,1.4 0.1,2 0,1.2 -0.1,2.7 -0.4,4.4 h -13.6 v 6.1 h 10.7 c 0.5,1.6 0.6,3.1 0.6,4.3 z"
   id="path14"
   inkscape:connector-curvature="0"
   style="fill:#113154" />
	<path
   class="st0"
   d="m 222.6,51.1 c 1.6,0.6 3,1.3 4.2,1.9 1.2,0.6 2.3,1.4 3.2,2.3 0.9,0.9 1.6,2 2.1,3.3 0.5,1.3 0.7,2.8 0.7,4.6 0,2 -0.3,3.7 -1,5.3 -0.7,1.6 -1.7,2.9 -3,4.1 -1.3,1.1 -3,2 -4.9,2.6 -1.9,0.6 -4.2,0.9 -6.7,0.9 -2.3,0 -4.3,-0.2 -6.1,-0.6 -1.8,-0.4 -3.7,-0.9 -5.7,-1.7 0.1,-1.3 0.4,-2.7 0.8,-4.1 0.4,-1.5 0.8,-3 1.3,-4.5 3.4,1.5 6.4,2.2 8.9,2.2 1.9,0 3.4,-0.3 4.4,-0.9 1.1,-0.6 1.6,-1.6 1.6,-3 0,-0.6 -0.1,-1.1 -0.3,-1.5 -0.2,-0.4 -0.5,-0.8 -0.9,-1.1 -0.4,-0.3 -0.8,-0.5 -1.3,-0.7 -0.5,-0.2 -0.9,-0.4 -1.4,-0.6 l -3.1,-1.2 c -1.3,-0.5 -2.5,-1.1 -3.6,-1.7 -1.1,-0.7 -2,-1.5 -2.8,-2.4 -0.8,-0.9 -1.4,-2 -1.8,-3.1 -0.4,-1.2 -0.6,-2.6 -0.6,-4.2 0,-2 0.3,-3.7 1,-5.2 0.7,-1.5 1.6,-2.8 2.8,-3.9 1.2,-1.1 2.7,-1.9 4.4,-2.4 1.7,-0.5 3.6,-0.8 5.7,-0.8 1.9,0 3.7,0.2 5.5,0.6 1.8,0.4 3.6,0.9 5.6,1.6 -0.1,1.2 -0.4,2.5 -0.8,3.9 -0.4,1.4 -0.9,2.8 -1.5,4 -1,-0.4 -2.1,-0.8 -3.4,-1.3 -1.3,-0.4 -2.9,-0.7 -4.8,-0.7 -0.6,0 -1.2,0.1 -1.7,0.2 -0.5,0.1 -1,0.3 -1.4,0.5 -0.4,0.2 -0.8,0.6 -1,1 -0.3,0.4 -0.4,1 -0.4,1.6 0,1.1 0.4,1.9 1.1,2.4 0.7,0.5 1.5,1 2.5,1.3 z m -7.1,28.1 c 1.3,-0.3 2.6,-0.4 4.1,-0.4 0.7,0 1.4,0 2.1,0.1 0.7,0.1 1.4,0.2 2.1,0.3 l -3.9,9.3 c -1.1,0.3 -2.2,0.4 -3.3,0.4 -1.1,0 -2.3,-0.1 -3.6,-0.4 z"
   id="path16"
   inkscape:connector-curvature="0"
   style="fill:#113154" />
	<path
   class="st0"
   d="M 244.3,44.2 H 235 c -0.3,-1.6 -0.5,-3.1 -0.5,-4.4 0,-1.2 0.2,-2.6 0.5,-4.3 h 28.4 c 0.1,0.8 0.3,1.6 0.3,2.3 0.1,0.7 0.1,1.4 0.1,2 0,1.2 -0.1,2.7 -0.4,4.4 h -9.3 v 31.1 c -2,0.3 -3.6,0.5 -4.9,0.5 -1.4,0 -3,-0.2 -4.9,-0.5 z"
   id="path18"
   inkscape:connector-curvature="0"
   style="fill:#113154" />
	<path
   class="st0"
   d="m 272.9,75.8 c -1.4,0 -3,-0.2 -4.9,-0.5 V 35.6 c 1,-0.1 1.9,-0.3 2.7,-0.3 0.8,-0.1 1.5,-0.1 2.2,-0.1 0.7,0 1.4,0 2.2,0.1 0.8,0.1 1.7,0.2 2.7,0.3 v 39.7 c -1.9,0.3 -3.6,0.5 -4.9,0.5 z"
   id="path20"
   inkscape:connector-curvature="0"
   style="fill:#113154" />
</g>
<g
   id="g26"
   transform="translate(-2.9,-2.6814176)">
	<path
   class="st1"
   d="m 73.5,130 8.9,-11.6 c 1.4,-1.8 2.6,-3.4 3.7,-4.8 1.1,-1.4 2,-2.6 2.8,-3.8 0.8,-1.2 1.3,-2.2 1.7,-3.2 0.4,-1 0.6,-2 0.6,-3 0,-1.7 -0.6,-3 -1.8,-4 -1.2,-0.9 -2.9,-1.4 -5,-1.4 -0.9,0 -1.7,0 -2.3,0.1 -0.7,0.1 -1.3,0.2 -1.9,0.4 -0.6,0.2 -1.2,0.4 -1.8,0.6 -0.6,0.2 -1.2,0.5 -1.9,0.8 -0.5,-1.1 -1,-2.3 -1.4,-3.5 -0.4,-1.2 -0.6,-2.4 -0.7,-3.6 1,-0.4 1.9,-0.7 2.7,-1 0.8,-0.3 1.7,-0.5 2.5,-0.7 0.8,-0.2 1.7,-0.3 2.6,-0.4 0.9,-0.1 2,-0.2 3.1,-0.2 2.2,0 4.1,0.2 6,0.7 1.8,0.5 3.4,1.2 4.7,2.2 1.3,1 2.3,2.2 3.1,3.7 0.7,1.5 1.1,3.2 1.1,5.2 0,1.5 -0.2,2.9 -0.6,4.2 -0.4,1.3 -1,2.7 -1.7,4 -0.7,1.3 -1.6,2.7 -2.6,4.1 -1,1.4 -2.1,2.9 -3.3,4.5 l -3.2,4.3 h 13 c 0.2,1.2 0.4,2.4 0.4,3.6 0,1.3 -0.1,2.6 -0.4,3.8 H 73.9 Z"
   id="path24"
   inkscape:connector-curvature="0"
   style="fill:#182e5a" />
</g>
<g
   id="g30"
   transform="translate(-2.9,-2.6814176)">
	<path
   class="st1"
   d="m 121.6,131.6 c -2.7,0 -5.1,-0.5 -7.1,-1.5 -2,-1 -3.6,-2.4 -4.9,-4.3 -1.3,-1.8 -2.2,-4 -2.9,-6.5 -0.6,-2.5 -0.9,-5.2 -0.9,-8.2 0,-3 0.3,-5.7 1,-8.2 0.6,-2.5 1.6,-4.7 2.9,-6.5 1.3,-1.8 3,-3.3 5,-4.3 2,-1 4.4,-1.6 7.2,-1.6 2.7,0 5.1,0.5 7.1,1.6 2,1 3.6,2.5 4.9,4.3 1.3,1.8 2.3,4 2.9,6.5 0.6,2.5 0.9,5.3 0.9,8.2 0,3 -0.3,5.7 -1,8.2 -0.6,2.5 -1.6,4.7 -2.9,6.5 -1.3,1.8 -3,3.2 -5,4.3 -2.1,1 -4.4,1.5 -7.2,1.5 z m 0.2,-7.3 c 2.1,0 3.7,-1.1 4.8,-3.2 1.2,-2.1 1.7,-5.4 1.7,-10 0,-4.5 -0.6,-7.8 -1.7,-10 -1.1,-2.2 -2.8,-3.2 -4.8,-3.2 -2.1,0 -3.8,1.1 -5,3.2 -1.2,2.1 -1.8,5.4 -1.8,10 0,4.5 0.6,7.8 1.8,10 1.3,2.1 2.9,3.2 5,3.2 z"
   id="path28"
   inkscape:connector-curvature="0"
   style="fill:#182e5a" />
</g>
<g
   id="g34"
   transform="translate(-2.9,-2.6814176)">
	<path
   class="st1"
   d="m 145.4,91.2 h 21.8 c 0.2,1.2 0.4,2.4 0.4,3.7 0,1.3 -0.1,2.6 -0.4,3.8 h -14 l -0.4,8.7 c 0.7,-0.2 1.4,-0.3 1.9,-0.3 0.6,-0.1 1.2,-0.1 1.8,-0.1 2,0 3.8,0.3 5.4,0.8 1.6,0.5 3,1.4 4.2,2.4 1.2,1.1 2.1,2.4 2.7,4 0.6,1.6 1,3.4 1,5.5 0,2.5 -0.4,4.7 -1.3,6.6 -0.9,1.9 -2.1,3.5 -3.7,4.8 -1.6,1.3 -3.6,2.3 -5.8,2.9 -2.3,0.6 -4.9,1 -7.7,1 -0.5,0 -1.2,0 -2,-0.1 -0.8,-0.1 -1.6,-0.2 -2.6,-0.3 -0.9,-0.1 -1.9,-0.3 -2.9,-0.6 -1,-0.2 -2,-0.5 -2.9,-0.9 0.1,-1.3 0.4,-2.5 0.8,-3.7 0.4,-1.2 0.9,-2.4 1.3,-3.6 1.4,0.5 2.8,0.9 4,1.2 1.3,0.3 2.6,0.4 4,0.4 1.8,0 3.3,-0.2 4.6,-0.6 1.2,-0.4 2.2,-0.9 3,-1.6 0.8,-0.7 1.3,-1.4 1.6,-2.3 0.3,-0.9 0.5,-1.8 0.5,-2.7 0,-2.1 -0.7,-3.7 -2,-4.8 -1.3,-1.1 -3.5,-1.7 -6.5,-1.7 -1.2,0 -2.3,0.1 -3.4,0.3 -1.1,0.2 -2.2,0.6 -3.4,1.2 l -0.9,-0.7 z"
   id="path32"
   inkscape:connector-curvature="0"
   style="fill:#182e5a" />
</g>
<g
   id="g38"
   transform="translate(-2.9,-2.6814176)">
	<path
   class="st1"
   d="m 192.6,131.6 c -2.7,0 -5.1,-0.5 -7.1,-1.5 -2,-1 -3.6,-2.4 -4.9,-4.3 -1.3,-1.8 -2.2,-4 -2.9,-6.5 -0.6,-2.5 -0.9,-5.2 -0.9,-8.2 0,-3 0.3,-5.7 1,-8.2 0.6,-2.5 1.6,-4.7 2.9,-6.5 1.3,-1.8 3,-3.3 5,-4.3 2,-1 4.4,-1.6 7.2,-1.6 2.7,0 5.1,0.5 7.1,1.6 2,1 3.6,2.5 4.9,4.3 1.3,1.8 2.3,4 2.9,6.5 0.6,2.5 0.9,5.3 0.9,8.2 0,3 -0.3,5.7 -1,8.2 -0.6,2.5 -1.6,4.7 -2.9,6.5 -1.3,1.8 -3,3.2 -5,4.3 -2.1,1 -4.5,1.5 -7.2,1.5 z m 0.1,-7.3 c 2.1,0 3.7,-1.1 4.8,-3.2 1.2,-2.1 1.7,-5.4 1.7,-10 0,-4.5 -0.6,-7.8 -1.7,-10 -1.1,-2.2 -2.8,-3.2 -4.8,-3.2 -2.1,0 -3.8,1.1 -5,3.2 -1.2,2.1 -1.8,5.4 -1.8,10 0,4.5 0.6,7.8 1.8,10 1.3,2.2 3,3.2 5,3.2 z"
   id="path36"
   inkscape:connector-curvature="0"
   style="fill:#182e5a" />
</g>
<circle
   transform="rotate(-32.507667)"
   class="st2"
   cx="231.60918"
   cy="163.72127"
   id="ellipse40"
   r="13.599686"
   style="fill:#fdb716;stroke-width:0.99997681" />
</svg>