<?xml version="1.0" encoding="UTF-8" standalone="no"?>
<svg
   xmlns:dc="http://purl.org/dc/elements/1.1/"
   xmlns:cc="http://creativecommons.org/ns#"
   xmlns:rdf="http://www.w3.org/1999/02/22-rdf-syntax-ns#"
   xmlns:svg="http://www.w3.org/2000/svg"
   xmlns="http://www.w3.org/2000/svg"
   height="32.211998"
   width="20.295469"
   xml:space="preserve"
   viewBox="0 0 20.295469 32.211997"
   y="0px"
   x="0px"
   id="Capa_1"
   version="1.1"><metadata
     id="metadata45"><rdf:RDF><cc:Work
         rdf:about=""><dc:format>image/svg+xml</dc:format><dc:type
           rdf:resource="http://purl.org/dc/dcmitype/StillImage" /><dc:title></dc:title></cc:Work></rdf:RDF></metadata><defs
     id="defs43" /><g
     transform="matrix(0.04707746,0,0,0.04707746,-5.9582646,0)"
     id="g6"><g
       id="g4"><path
         style="fill:#010002"
         d="M 342.122,0 C 223.063,0 126.563,96.49 126.563,215.549 c 0,119.049 215.559,468.685 215.559,468.685 0,0 215.549,-349.635 215.549,-468.685 C 557.681,96.49 461.162,0 342.122,0 Z m 0,382.326 c -91.976,0 -166.777,-74.81 -166.777,-166.777 0,-91.967 74.8,-166.786 166.777,-166.786 91.957,0 166.777,74.82 166.777,166.786 0,91.966 -74.82,166.777 -166.777,166.777 z M 417.088,276.72 V 141.394 h 26.165 V 276.72 Z M 447.552,135.698 H 236.653 L 340.568,67.19 Z M 240.971,276.72 V 141.394 h 26.174 V 276.72 Z m 55.045,0 V 141.394 h 26.155 V 276.72 Z m 64.034,0 V 141.394 h 26.155 V 276.72 Z m -127.178,9.927 h 218.5 v 24.347 h -218.5 z"
         id="path2" /></g></g><g
     transform="translate(-331.96926,-326.011)"
     id="g10" /><g
     transform="translate(-331.96926,-326.011)"
     id="g12" /><g
     transform="translate(-331.96926,-326.011)"
     id="g14" /><g
     transform="translate(-331.96926,-326.011)"
     id="g16" /><g
     transform="translate(-331.96926,-326.011)"
     id="g18" /><g
     transform="translate(-331.96926,-326.011)"
     id="g20" /><g
     transform="translate(-331.96926,-326.011)"
     id="g22" /><g
     transform="translate(-331.96926,-326.011)"
     id="g24" /><g
     transform="translate(-331.96926,-326.011)"
     id="g26" /><g
     transform="translate(-331.96926,-326.011)"
     id="g28" /><g
     transform="translate(-331.96926,-326.011)"
     id="g30" /><g
     transform="translate(-331.96926,-326.011)"
     id="g32" /><g
     transform="translate(-331.96926,-326.011)"
     id="g34" /><g
     transform="translate(-331.96926,-326.011)"
     id="g36" /><g
     transform="translate(-331.96926,-326.011)"
     id="g38" /><path
     id="path3699"
     d="m 9.3131254,30.66574 c -5.38294,-9.3399 -8.27317,-15.44085 -9.02156997,-19.04346 -0.24583,-1.18336 -0.25733,-1.63247 -0.074,-2.89041 0.70906,-4.86488 4.94818997,-8.5682 9.80786957,-8.5682 2.94328,0 5.18809,0.90962 7.20246,2.9185 0.82855,0.8263 1.3895,1.60028 1.85083,2.5537 1.74929,3.61523 1.43213,6.20444 -1.56495,12.77605 -1.73831,3.81153 -7.03797,13.50057 -7.37599,13.48506 -0.065,-0.003 -0.4360996,-0.55704 -0.8246696,-1.23124 z M 12.508485,17.67925 c 2.87379,-0.89307 4.92766,-3.28484 5.47137,-6.37149 0.89492,-5.08058 -4.00608,-9.91246 -9.1019096,-8.97351 -2.62581,0.48382 -4.81676,2.15584 -5.92322,4.52029 -1.0284,2.19764 -0.89504,5.18169 0.32449,7.26092 1.86115,3.17312 5.70733,4.65829 9.2292696,3.56379 z"
     style="stroke-width:0.18240654" /><path
     id="path3701"
     d="m 8.0100854,28.40167 c -2.55268,-4.4631 -5.8118,-10.99224 -6.7205,-13.46344 -1.08564997,-2.95245 -1.33546997,-4.39877 -1.07200997,-6.20636 0.71142,-4.88102 4.94652997,-8.5682 9.84146957,-8.5682 2.94396,0 5.13712,0.89441 7.18261,2.9292 1.87893,1.8691 2.89502,4.26509 2.89935,6.83683 0.004,2.33703 -0.9776,5.16055 -3.73867,10.7547 -1.91854,3.88711 -5.91789,11.06306 -6.2223,11.16453 -0.0916,0.0305 -1.0680696,-1.52074 -2.1699496,-3.44726 z M 12.215765,17.75641 c 2.15894,-0.56218 3.98951,-2.07247 4.97024,-4.10064 1.55361,-3.21287 1.00263,-6.53491 -1.49869,-9.03624 -2.44457,-2.44457 -5.7162296,-3.04945 -8.8165896,-1.63006 -3.93328,1.80071 -5.71528,6.52067 -3.91462,10.36859 0.99363,2.12334 3.18887,3.99212 5.26091,4.47856 1.11662,0.26213 2.8148796,0.22807 3.9987496,-0.0802 z"
     style="stroke-width:0.18240654" /><path
     id="path3821"
     d="M 9.4012254,30.84997 C 6.1741054,25.39526 2.4526454,18.08321 1.2567454,14.84739 0.21257543,12.02213 -0.04408457,10.52714 0.21263543,8.76576 0.93529543,3.80764 5.1063754,0.16367 10.059045,0.16367 c 2.94119,0 5.14451,0.8974 7.16562,2.9185 2.51652,2.51652 3.4662,5.88161 2.62208,9.29108 -0.82244,3.32194 -4.26081,10.47221 -8.49196,17.65949 -0.60537,1.02832 -1.15344,1.86805 -1.21793,1.86607 -0.0645,-0.002 -0.3955196,-0.47396 -0.7356296,-1.04884 z M 13.443405,17.26783 c 2.42026,-1.14937 4.07746,-3.35544 4.49797,-5.98769 0.80505,-5.0394 -3.9166,-9.77456 -8.9094996,-8.93499 -3.16027,0.53141 -5.71286,2.79432 -6.48145,5.74592 -1.07008,4.10939 1.09642,8.11176 5.16287,9.53788 1.01011,0.35425 1.47654,0.41249 2.8015896,0.34984 1.34656,-0.0637 1.7945,-0.17241 2.92852,-0.71096 z"
     style="fill:#3771c8;stroke-width:0.18240654" /><path
     id="path3825"
     d="m 5.6509754,6.20753 c 0.0953,-0.0869 1.13643,-0.78104 2.31361,-1.54258 l 2.1403296,-1.38462 2.40003,1.54258 2.40003,1.54258 h -4.71364 c -2.6678996,0 -4.6384396,-0.0685 -4.5403596,-0.15796 z"
     style="fill:#00d4aa;stroke-width:0.18240654" /><path
     id="path3827"
     d="m 5.0034254,14.11777 v -0.45602 h 5.1073896 5.10738 v 0.45602 0.45602 h -5.10738 -5.1073896 z"
     style="fill:#87decd;stroke-width:0.18240654" /><path
     id="path3829"
     d="M 8.1043454,9.83122 V 6.7303 h 0.54721 0.54722 v 3.10092 3.10091 h -0.54722 -0.54721 z"
     style="fill:#87decd;stroke-width:0.18240654" /><path
     id="path3831"
     d="M 13.758945,9.83122 V 6.7303 h 0.54722 0.54722 v 3.10092 3.10091 h -0.54722 -0.54722 z"
     style="fill:#008066;stroke-width:0.18240654" /><path
     id="path3833"
     d="M 5.5506454,9.83122 V 6.7303 h 0.45602 0.45602 v 3.10092 3.10091 h -0.45602 -0.45602 z"
     style="fill:#f05325;fill-opacity:1;stroke-width:0.18240654" /><path
     id="path4640"
     d="m 7.9939054,9.77627 -0.0537,-3.19234 0.59282,2.5e-4 0.59282,2.5e-4 v 3.19212 3.19211 h -0.53908 -0.53909 z"
     style="fill:#2bace2;fill-opacity:1;stroke-width:0.18240654" /><path
     id="path4642"
     d="M 11.132285,9.8677 V 6.76679 h 0.54722 0.54722 v 3.10091 3.10091 h -0.54722 -0.54722 z"
     style="fill:#0dab50;fill-opacity:1;stroke-width:0.18240654" /><path
     id="path4644"
     d="m 13.831105,9.68506 -0.0539,-3.10115 0.50162,2.5e-4 0.50161,2.5e-4 v 3.10091 3.10092 h -0.4477 -0.44769 z"
     style="fill:#df3a46;fill-opacity:1;stroke-width:0.18240654" /><path
     id="path4646"
     d="m 10.072105,14.65301 -5.1643296,-0.0485 0.057,-0.58996 0.0569,-0.58997 5.0663996,-0.0485 c 5.46194,-0.0523 5.34277,-0.0729 5.20758,0.89952 l -0.0592,0.42582 z"
     style="fill:#68b1ab;fill-opacity:1;stroke-width:0.18240654" /><path
     id="path4648"
     d="m 6.0249054,6.14817 c 0,-0.0913 3.94201,-2.6647 4.0818196,-2.6647 0.12165,0 3.76854,2.33067 4.02615,2.57305 0.10213,0.0961 -1.52709,0.16305 -3.96734,0.16305 -2.2773496,0 -4.1406296,-0.0321 -4.1406296,-0.0714 z"
     style="fill:#f78d2a;fill-opacity:1;stroke-width:0.18240654" /><path
     id="path4650"
     d="m 9.8463554,31.69908 c -0.14549,-0.21924 -0.32705,-0.52174 -0.40347,-0.67223 -0.0764,-0.15048 -0.30232,-0.51985 -0.502,-0.82083 -0.19968,-0.30097 -0.49164,-0.79346 -0.64881,-1.09443 -0.15717,-0.30098 -0.4851,-0.87556 -0.72873,-1.27685 -0.24363,-0.40129 -0.6189,-1.09588 -0.83394,-1.54352 -0.21503,-0.44765 -0.49519,-0.91813 -0.62258,-1.04551 -0.12739,-0.12739 -0.37325,-0.60249 -0.54636,-1.05577 -0.17311,-0.45329 -0.39052,-0.82416 -0.48314,-0.82416 -0.0926,0 -0.11766,-0.0821 -0.0557,-0.18241 0.062,-0.10032 0.021,-0.1824 -0.0912,-0.1824 -0.11216,0 -0.15754,-0.0751 -0.10083,-0.16683 0.0567,-0.0917 0.0304,-0.19436 -0.0585,-0.22801 -0.19168,-0.0726 -1.89925,-3.4357 -1.74442,-3.4357 0.0585,0 -0.15188,-0.45146 -0.46757,-1.00324 -0.3157,-0.55178 -0.52024,-1.00323 -0.45453,-1.00323 0.0657,0 -0.0708,-0.30781 -0.30328,-0.68403 -0.23252,-0.37621 -0.41383,-0.72506 -0.40292,-0.77522 0.0259,-0.11914 -0.10783,-0.54673 -0.31379,-1.00324 C 0.77936543,14.02496 0.38570543,12.7862 0.47593543,12.7862 c 0.0492,0 0.002,-0.16417 -0.10571,-0.36481 -0.14057,-0.26266 -0.13872,-0.36482 0.007,-0.36482 0.11452,0 0.082,-0.11987 -0.0752,-0.27707 -0.21484,-0.21484 -0.26499,-0.63477 -0.22327,-1.86966 0.0296,-0.87593 0.11216,-1.79781 0.1835,-2.04862 0.0713,-0.2508 0.14774,-0.53809 0.16977,-0.63842 0.022,-0.10032 0.10417,-0.28501 0.18251,-0.41041 0.0783,-0.12541 0.0945,-0.22801 0.036,-0.22801 -0.11691,0 0.52497997,-1.23471 1.09052997,-2.09768 0.46187,-0.70478 2.0289,-2.27181 2.73369,-2.73369 0.67003,-0.4391 2.05978,-1.19625 2.18703,-1.19151 0.0512,0.002 0.11357,-0.003 0.13865,-0.0105 0.0251,-0.008 0.16872,-0.0439 0.31921,-0.0805 0.15049,-0.0366 0.47882,-0.12548 0.72963,-0.19747 0.60625,-0.17401 3.9365496,-0.17862 4.7425696,-0.007 0.69177,0.14766 2.97146,1.21573 3.07051,1.43857 0.0334,0.0753 0.12907,0.13681 0.21251,0.13681 0.37255,0 2.54802,2.13828 2.55171,2.50809 0.001,0.1254 0.0844,0.22801 0.18468,0.22801 0.10032,0 0.18241,0.11726 0.18241,0.26058 0,0.14332 0.12898,0.38957 0.28664,0.54722 0.15765,0.15765 0.24105,0.28664 0.18533,0.28664 -0.0557,0 0.0575,0.30781 0.25165,0.68402 0.60657,1.17553 0.91842,3.52106 0.66087,4.97058 -0.17836,1.00382 -0.30611,1.56347 -0.41638,1.82406 -0.0637,0.15049 -0.13312,0.33518 -0.15433,0.41042 -0.0212,0.0752 -0.0591,0.17785 -0.0842,0.22801 -0.0251,0.0502 -0.063,0.15276 -0.0842,0.228 -0.0212,0.0753 -0.0852,0.25993 -0.14211,0.41042 -0.13041,0.34459 -0.26269,0.76673 -0.31436,1.00324 -0.0219,0.10032 -0.14302,0.38761 -0.26913,0.63842 -0.56551,1.12471 -0.87702,1.81143 -0.88405,1.94888 -0.0109,0.2136 -2.90728,5.96776 -3.05885,6.07701 -0.0696,0.0502 -0.31111,0.52213 -0.5367,1.04883 -0.2256,0.5267 -0.471,0.95764 -0.54534,0.95764 -0.0743,0 -0.27622,0.36937 -0.44864,0.82083 -0.17241,0.45145 -0.3824,0.82083 -0.46665,0.82083 -0.0842,0 -0.24799,0.28729 -0.36387,0.63842 -0.11588,0.35113 -0.27839,0.63842 -0.36112,0.63842 -0.0827,0 -0.24077,0.22573 -0.3512,0.50162 -0.11044,0.27589 -0.3635,0.74787 -0.56236,1.04884 -0.19886,0.30097 -0.4398,0.72393 -0.53543,0.93991 -0.25805,0.58286 -0.45772,0.63282 -0.7526696,0.18833 z M 11.679505,17.795 c 1.3633,-0.18265 3.68543,-1.52512 4.36662,-2.52442 0.14498,-0.21269 0.32152,-0.42775 0.39231,-0.47791 0.3091,-0.21903 1.10674,-1.98152 1.31642,-2.9088 0.20638,-0.91272 0.24049,-2.57877 0.0674,-3.29302 -0.23561,-0.97231 -0.38963,-1.41104 -0.60658,-1.72785 -0.13552,-0.19789 -0.2464,-0.51054 -0.2464,-0.69479 0,-0.18424 -0.0642,-0.2953 -0.14271,-0.24679 -0.0785,0.0485 -0.34281,-0.20382 -0.58737,-0.56073 -0.51497,-0.75156 -2.64791,-2.42444 -3.09118,-2.42444 -0.16562,0 -0.3791,-0.0681 -0.47441,-0.15131 -0.27501,-0.24012 -2.5177,-0.61386 -3.0098996,-0.5016 -0.24569,0.056 -0.65191,0.13999 -0.90272,0.18655 -1.70728,0.31696 -2.81599,0.91106 -4.10415,2.19922 -1.54516,1.54517 -2.19325,3.04351 -2.26433,5.23504 -0.0235,0.72543 -0.0826,1.38336 -0.13123,1.46208 -0.0486,0.0787 -0.0152,0.14312 0.0743,0.14312 0.0895,0 0.17164,0.10261 0.18249,0.22801 0.039,0.4515 0.15451,0.85826 0.27902,0.98276 0.0698,0.0698 0.12688,0.25244 0.12688,0.40589 0,0.91324 3.10157,4.0682 4.22508,4.29782 0.13414,0.0274 0.367,0.0987 0.51749,0.15837 0.51283,0.20341 2.27878,0.45403 2.7360996,0.38831 0.25081,-0.036 0.82539,-0.11503 1.27684,-0.17551 z"
     style="fill:#975b9e;fill-opacity:1;stroke-width:0.18240654" /></svg>