<?xml version="1.0" encoding="UTF-8" standalone="no"?>
<!-- Generator: Adobe Illustrator 19.1.0, SVG Export Plug-In . SVG Version: 6.00 Build 0)  -->

<svg
   xmlns:dc="http://purl.org/dc/elements/1.1/"
   xmlns:cc="http://creativecommons.org/ns#"
   xmlns:rdf="http://www.w3.org/1999/02/22-rdf-syntax-ns#"
   xmlns:svg="http://www.w3.org/2000/svg"
   xmlns="http://www.w3.org/2000/svg"
   xmlns:sodipodi="http://sodipodi.sourceforge.net/DTD/sodipodi-0.dtd"
   xmlns:inkscape="http://www.inkscape.org/namespaces/inkscape"
   version="1.1"
   id="Capa_1"
   x="0px"
   y="0px"
   viewBox="0 0 322.59036 511.99999"
   xml:space="preserve"
   sodipodi:docname="monument-pin-2.svg"
   inkscape:version="0.92.1 r15371"
   width="322.59036"
   height="512"><metadata
     id="metadata45"><rdf:RDF><cc:Work
         rdf:about=""><dc:format>image/svg+xml</dc:format><dc:type
           rdf:resource="http://purl.org/dc/dcmitype/StillImage" /><dc:title></dc:title></cc:Work></rdf:RDF></metadata><defs
     id="defs43" /><sodipodi:namedview
     pagecolor="#ffffff"
     bordercolor="#666666"
     borderopacity="1"
     objecttolerance="10"
     gridtolerance="10"
     guidetolerance="10"
     inkscape:pageopacity="0"
     inkscape:pageshadow="2"
     inkscape:window-width="808"
     inkscape:window-height="480"
     id="namedview41"
     showgrid="false"
     inkscape:zoom="0.34491124"
     inkscape:cx="161.29519"
     inkscape:cy="256"
     inkscape:window-x="2746"
     inkscape:window-y="1256"
     inkscape:window-maximized="0"
     inkscape:current-layer="Capa_1"
     inkscape:measure-start="562.464,469.686"
     inkscape:measure-end="0,0"
     fit-margin-top="0"
     fit-margin-left="0"
     fit-margin-right="0"
     fit-margin-bottom="0" /><g
     id="g8"
     transform="matrix(0.74828202,0,0,0.74828202,-94.704817,0)"><g
       id="g6"><g
         id="g4"><path
           style="fill:#010002"
           d="M 342.122,0 C 223.063,0 126.563,96.49 126.563,215.549 c 0,119.049 215.559,468.685 215.559,468.685 0,0 215.549,-349.635 215.549,-468.685 C 557.681,96.49 461.162,0 342.122,0 Z m 0,382.326 c -91.976,0 -166.777,-74.81 -166.777,-166.777 0,-91.967 74.8,-166.786 166.777,-166.786 91.957,0 166.777,74.82 166.777,166.786 0,91.966 -74.82,166.777 -166.777,166.777 z M 417.088,276.72 V 141.394 h 26.165 V 276.72 Z M 447.552,135.698 H 236.653 L 340.568,67.19 Z M 240.971,276.72 V 141.394 h 26.174 V 276.72 Z m 55.045,0 V 141.394 h 26.155 V 276.72 Z m 64.034,0 V 141.394 h 26.155 V 276.72 Z m -127.178,9.927 h 218.5 v 24.347 h -218.5 z"
           id="path2"
           inkscape:connector-curvature="0" /></g></g></g><g
     id="g10"
     transform="translate(-180.82182,-86.117)" /><g
     id="g12"
     transform="translate(-180.82182,-86.117)" /><g
     id="g14"
     transform="translate(-180.82182,-86.117)" /><g
     id="g16"
     transform="translate(-180.82182,-86.117)" /><g
     id="g18"
     transform="translate(-180.82182,-86.117)" /><g
     id="g20"
     transform="translate(-180.82182,-86.117)" /><g
     id="g22"
     transform="translate(-180.82182,-86.117)" /><g
     id="g24"
     transform="translate(-180.82182,-86.117)" /><g
     id="g26"
     transform="translate(-180.82182,-86.117)" /><g
     id="g28"
     transform="translate(-180.82182,-86.117)" /><g
     id="g30"
     transform="translate(-180.82182,-86.117)" /><g
     id="g32"
     transform="translate(-180.82182,-86.117)" /><g
     id="g34"
     transform="translate(-180.82182,-86.117)" /><g
     id="g36"
     transform="translate(-180.82182,-86.117)" /><g
     id="g38"
     transform="translate(-180.82182,-86.117)" /></svg>